<?xml version="1.0" encoding="utf-8"?>
<!-- Generator: Adobe Illustrator 23.0.1, SVG Export Plug-In . SVG Version: 6.00 Build 0)  -->
<svg version="1.1" id="Capa_1" xmlns="http://www.w3.org/2000/svg" xmlns:xlink="http://www.w3.org/1999/xlink" x="0px" y="0px"
	 viewBox="0 0 100 100" style="enable-background:new 0 0 100 100;" xml:space="preserve">
<style type="text/css">
	.st0{fill:#279E64;}
</style>
<g>
	<g>
		<rect x="35.1" y="23.6" class="st0" width="3.3" height="3.3"/>
	</g>
</g>
<g>
	<g>
		<path class="st0" d="M44.4,81.5c-1.8-15.1-6.2-33.1-17.5-33.1s-15.7,18-17.5,33.1c-0.6,4.8,2.8,9.1,7.6,9.7c0.3,0,0.7,0.1,1,0.1
			h17.6c4.8,0,8.7-3.9,8.7-8.7C44.4,82.2,44.4,81.8,44.4,81.5z M26.9,51.6c6.1,0,9.8,8.6,11.9,17.1l-0.7,0.7c-2.6,2.5-6.6,2.5-9.2,0
			c-3.8-3.8-10-3.8-13.9,0c0,0,0,0,0,0l-0.2,0.2C16.9,60.8,20.6,51.6,26.9,51.6z M39.7,86.1c-1,1.2-2.5,1.8-4,1.8H18.1
			c-1.5,0-3-0.7-4-1.8c-1-1.2-1.5-2.7-1.3-4.3c0.2-1.8,0.5-4,0.9-6.4l3.7-3.7c2.6-2.5,6.6-2.5,9.2,0c3.5,3.5,9.1,3.8,13,0.7
			c0.7,3.6,1.2,6.9,1.5,9.4C41.3,83.4,40.8,85,39.7,86.1z"/>
	</g>
</g>
<g>
	<g>
		<path class="st0" d="M58.5,1.2c-2.8-0.5-5.6-0.7-8.5-0.7c-6,0-11.9,1.1-17.5,3.2c-1.9-3.1-5.9-4.1-9-2.2c-2,1.2-3.2,3.3-3.2,5.7
			v1.6h-1.6c-0.9,0-1.6,0.7-1.6,1.6v5.3C9.7,17.2,4.4,23.6,4.4,31.1c0,5.2,2,10.1,5.7,13.7l2,1.9C3,57.5-1,71.5,1,85.4l0,0.2
			c1.2,7.9,8,13.8,16,13.9h19.8c1.6,0,3.2-0.2,4.7-0.7c26.9,4.7,52.6-13.4,57.2-40.3S85.4,5.9,58.5,1.2z M23.6,7.1
			c0-1.8,1.5-3.3,3.3-3.3c1.8,0,3.3,1.5,3.3,3.3v1.6h-6.6C23.6,8.7,23.6,7.1,23.6,7.1z M20.3,12h13.2v3.3H20.3
			C20.3,15.3,20.3,12,20.3,12z M36.8,96.2H17c-6.4,0-11.8-4.7-12.7-11l0-0.2C2.3,71.5,6.5,57.9,15.6,47.8c0.6-0.7,0.6-1.6-0.1-2.3
			l-3-3c-3-3-4.7-7.1-4.7-11.4c0-1.4,0.3-2.8,0.7-4.2h23.4v-3.3H10.3c0.3-0.5,0.7-0.9,1.1-1.3c2.3-2.3,5.5-3.6,8.8-3.6h13.5
			c6.9,0,12.4,5.6,12.4,12.4c0,0,0,0,0,0c0,4.3-1.7,8.4-4.7,11.4l-3,3c-0.6,0.6-0.6,1.6-0.1,2.3c9.1,10.1,13.2,23.7,11.3,37.1l0,0.2
			C48.6,91.5,43.2,96.2,36.8,96.2z M66.5,93.1c-5.3,2-10.9,3.1-16.5,3.1c-1.1,0-2.2-0.1-3.3-0.1c3.3-2.6,5.5-6.3,6.1-10.4l0-0.2
			c0.3-2,0.4-3.9,0.5-5.9c13.1-1.4,23.7-11.3,26-24.3L76,54.7c-2,11.4-11.3,20.1-22.7,21.5C52.7,65.4,48.7,55,41.7,46.8l2-2
			c3.7-3.6,5.7-8.6,5.7-13.7c0-2.6-0.6-5.1-1.8-7.4c0.8-0.1,1.6-0.1,2.5-0.1c12.8,0,23.7,9.1,26,21.7l3.2-0.6
			C76.7,30.6,64.4,20.3,50,20.3c-1.5,0-3.1,0.1-4.6,0.4c-0.2-0.2-0.4-0.5-0.7-0.7c-2.2-2.2-4.9-3.7-8-4.3v-5.3
			c0-0.9-0.7-1.6-1.6-1.6h-1.6V7.1c0-0.1,0-0.2,0-0.2C57.3-2.3,84,9.6,93.1,33.5C102.3,57.3,90.4,84,66.5,93.1z"/>
	</g>
</g>
<g>
	<g>
		<path class="st0" d="M79.7,48.2l-3.3,0.2c0,0.5,0,1,0,1.6c0,0.5,0,1,0,1.6l3.3,0.2c0-0.6,0.1-1.2,0.1-1.7
			C79.7,49.4,79.7,48.8,79.7,48.2z"/>
	</g>
</g>
<g>
	<g>
		<polygon class="st0" points="96.2,3.8 96.2,0.5 92.9,0.5 92.9,3.8 89.6,3.8 89.6,7.1 92.9,7.1 92.9,10.4 96.2,10.4 96.2,7.1 
			99.5,7.1 99.5,3.8 		"/>
	</g>
</g>
<g>
	<g>
		<polygon class="st0" points="96.2,92.9 96.2,89.6 92.9,89.6 92.9,92.9 89.6,92.9 89.6,96.2 92.9,96.2 92.9,99.5 96.2,99.5 
			96.2,96.2 99.5,96.2 99.5,92.9 		"/>
	</g>
</g>
<g>
	<g>
		<polygon class="st0" points="7.1,3.8 7.1,0.5 3.8,0.5 3.8,3.8 0.5,3.8 0.5,7.1 3.8,7.1 3.8,10.4 7.1,10.4 7.1,7.1 10.4,7.1 
			10.4,3.8 		"/>
	</g>
</g>
</svg>
