<?xml version="1.0" encoding="utf-8"?>
<!-- Generator: Adobe Illustrator 21.0.0, SVG Export Plug-In . SVG Version: 6.00 Build 0)  -->
<svg version="1.1" id="Layer_1" xmlns="http://www.w3.org/2000/svg" xmlns:xlink="http://www.w3.org/1999/xlink" x="0px" y="0px"
	 viewBox="0 0 74 74" style="enable-background:new 0 0 74 74;" xml:space="preserve">
<style type="text/css">
	.st0{fill:#279E64;}
</style>
<path class="st0" d="M37,48.5c-10.3,0-18.7,8.4-18.7,18.7c0,0.6,0,1.2,0.1,1.8c5.6,3.3,12,5,18.7,5s13.1-1.8,18.7-5
	c0.1-0.6,0.1-1.2,0.1-1.8C55.7,56.9,47.3,48.5,37,48.5"/>
<path class="st0" d="M63.2,10.8C56.2,3.8,46.9,0,37,0S17.8,3.8,10.8,10.8S0,27.1,0,37c0,9.9,3.8,19.2,10.8,26.2c1,1,2,1.9,3.1,2.8
	c0.5-9.1,6.3-16.8,14.3-20.1c-4.4-2.9-7.3-7.9-7.3-13.5c0-8.9,7.2-16.1,16.1-16.1s16.1,7.2,16.1,16.1c0,5.6-2.9,10.6-7.3,13.5
	c8,3.3,13.8,11,14.3,20.1c1.1-0.9,2.1-1.8,3.1-2.8c7-7,10.8-16.3,10.8-26.2C74,27.1,70.2,17.8,63.2,10.8"/>
<path class="st0" d="M48.8,32.4c0-6.5-5.3-11.8-11.8-11.8c-6.5,0-11.8,5.3-11.8,11.8c0,6.5,5.3,11.8,11.8,11.8
	C43.5,44.1,48.8,38.8,48.8,32.4"/>
</svg>
