<?xml version="1.0" encoding="utf-8"?>
<!-- Generator: Adobe Illustrator 21.0.0, SVG Export Plug-In . SVG Version: 6.00 Build 0)  -->
<svg version="1.1" id="Layer_1" xmlns="http://www.w3.org/2000/svg" xmlns:xlink="http://www.w3.org/1999/xlink" x="0px" y="0px"
	 viewBox="0 0 480 480" style="enable-background:new 0 0 480 480;" xml:space="preserve">
<style type="text/css">
	.st0{fill:#279E64;}
</style>
<path class="st0" d="M424,224.6V216c0-48.6-39.4-88-88-88s-88,39.4-88,88v32h-32c-4.4,0-8,3.6-8,8v32c0,4.4,3.6,8,8,8h0.8l7.6,72
	H192V24c0-13.3-10.7-24-24-24s-24,10.7-24,24v344H64c-8.8,0-16,7.2-16,16v23l-15.8,63c-1.1,4.3,1.5,8.6,5.8,9.7
	c0.6,0.2,1.3,0.2,1.9,0.2h376c4.4,0,8-3.6,8-8v-31.6l11.3-107.3c7.9-4.3,12.8-12.6,12.7-21.6V254C448,239.7,438,227.5,424,224.6
	 M264,216c0-39.8,32.2-72,72-72s72,32.2,72,72v8h-74c-14.3,0-26.5,10-29.4,24H264V216z M224,264h80v16h-80V264z M232.9,296H304v15.6
	c0,6.6,2.7,12.9,7.4,17.5c4.5,4.5,10.6,7,17,6.9c5.8-0.1,11.3-2.3,15.6-6.1c9.1,8.2,22.9,8.2,32,0c9.1,8.2,22.9,8.2,32,0
	c3.1,2.8,6.9,4.7,11,5.6L408.8,432H294.2l-6.2-25v-23c0-8.8-7.2-16-16-16h-31.5L232.9,296z M160,24c0-4.4,3.6-8,8-8s8,3.6,8,8v344
	h-16V24z M64,384h208v16H64V384z M82.2,464l12-48h15.5l-12,48H82.2z M62.2,416h15.5l-12,48H50.2L62.2,416z M126.2,416h16.7l-6,48
	h-22.7L126.2,416z M153.1,464l6-48h17.9l6,48H153.1z M199.1,464l-6-48h16.7l12,48H199.1z M238.2,464l-12-48h15.5l12,48H238.2z
	 M270.2,464l-12-48h15.5l12,48H270.2z M408,464H302.2l-4-16H408V464z M432,288v23.5c0.1,4.4-3.2,8.1-7.6,8.4
	c-4.4,0.2-8.2-3.2-8.4-7.6c0-0.1,0-0.3,0-0.4v-32h-16v32c0,4.4-3.6,8-8,8s-8-3.6-8-8v-32h-16v32c0,4.4-3.6,8-8,8s-8-3.6-8-8v-32h-16
	v32c0,4.4-3.5,7.9-7.9,8H328c-2,0-4-0.8-5.4-2.3c-1.6-1.6-2.6-3.8-2.6-6.1V254c0-7.7,6.3-14,14-14h84c7.7,0,14,6.3,14,14L432,288z"
	/>
<rect x="376" y="376" class="st0" width="16" height="40"/>
<rect x="376" y="344" class="st0" width="16" height="16"/>
<path class="st0" d="M80.4,258.5c1.4,4.2,5.9,6.5,10.1,5.1c2.4-0.8,4.3-2.7,5.1-5.1c4.3-12.7,14.2-22.7,26.9-26.9
	c4.2-1.4,6.5-5.9,5.1-10.1c-0.8-2.4-2.7-4.3-5.1-5.1c-12.7-4.3-22.7-14.2-26.9-26.9c-1.4-4.2-5.9-6.5-10.1-5.1
	c-2.4,0.8-4.3,2.7-5.1,5.1c-4.3,12.7-14.2,22.7-26.9,26.9c-4.2,1.4-6.5,5.9-5.1,10.1c0.8,2.4,2.7,4.3,5.1,5.1
	C66.2,235.9,76.1,245.8,80.4,258.5 M88,209.6c3.9,5.6,8.8,10.5,14.4,14.4c-5.6,3.9-10.5,8.8-14.4,14.4c-3.9-5.6-8.8-10.5-14.4-14.4
	C79.2,220.1,84.1,215.2,88,209.6"/>
<path class="st0" d="M474.5,120.4c-12.7-4.3-22.7-14.2-26.9-26.9c-1.4-4.2-5.9-6.5-10.1-5.1c-2.4,0.8-4.3,2.7-5.1,5.1
	c-4.3,12.7-14.2,22.7-26.9,26.9c-4.2,1.4-6.5,5.9-5.1,10.1c0.8,2.4,2.7,4.3,5.1,5.1c12.7,4.3,22.7,14.2,26.9,26.9
	c1.4,4.2,5.9,6.5,10.1,5.1c2.4-0.8,4.3-2.7,5.1-5.1c4.3-12.7,14.2-22.7,26.9-26.9c4.2-1.4,6.5-5.9,5.1-10.1
	C478.8,123.1,476.9,121.2,474.5,120.4 M440,142.4c-3.9-5.6-8.8-10.5-14.4-14.4c5.6-3.9,10.5-8.8,14.4-14.4
	c3.9,5.6,8.8,10.5,14.4,14.4C448.8,131.9,443.9,136.8,440,142.4"/>
<path class="st0" d="M40,360c3.4,0,6.5-2.2,7.6-5.5c4.3-12.7,14.2-22.7,26.9-26.9c4.2-1.4,6.5-5.9,5.1-10.1
	c-0.8-2.4-2.7-4.3-5.1-5.1c-12.7-4.3-22.7-14.2-26.9-26.9c-1.4-4.2-5.9-6.5-10.1-5.1c-2.4,0.8-4.3,2.7-5.1,5.1
	c-4.3,12.7-14.2,22.7-26.9,26.9c-4.2,1.4-6.5,5.9-5.1,10.1c0.8,2.4,2.7,4.3,5.1,5.1c12.7,4.3,22.7,14.2,26.9,26.9
	C33.5,357.8,36.6,360,40,360 M40,305.6c3.9,5.6,8.8,10.5,14.4,14.4c-5.6,3.9-10.5,8.8-14.4,14.4c-3.9-5.6-8.8-10.5-14.4-14.4
	C31.2,316.1,36.1,311.2,40,305.6"/>
</svg>
