<?xml version="1.0" encoding="utf-8"?>
<!-- Generator: Adobe Illustrator 21.0.0, SVG Export Plug-In . SVG Version: 6.00 Build 0)  -->
<svg version="1.1" id="Layer_1" xmlns="http://www.w3.org/2000/svg" xmlns:xlink="http://www.w3.org/1999/xlink" x="0px" y="0px"
	 viewBox="0 0 140.8 176" style="enable-background:new 0 0 140.8 176;" xml:space="preserve">
<style type="text/css">
	.st0{clip-path:url(#SVGID_2_);fill:#FFFFFF;}
</style>
<g>
	<defs>
		<rect id="SVGID_1_" width="140.8" height="176"/>
	</defs>
	<clipPath id="SVGID_2_">
		<use xlink:href="#SVGID_1_"  style="overflow:visible;"/>
	</clipPath>
	<path class="st0" d="M102.7,0H44c-8.1,0-14.7,6.6-14.7,14.7v8.8C13.1,23.5,0,36.6,0,52.8s13.1,29.3,29.3,29.3v55.7
		c0,8.1,6.6,14.7,14.7,14.7h41l0.1,0.1v20.4c0,1.6,1.3,2.9,2.9,2.9h44c1.6,0,2.9-1.3,2.9-2.9v-19.9l5.7-15.6c0.1-0.3,0.2-0.7,0.2-1
		V99.7c0-4.9-3.9-8.8-8.8-8.8c-1,0-2,0.2-2.9,0.5v-0.5c0-4.9-3.9-8.8-8.8-8.8c-1,0-2,0.2-2.9,0.5v-68C117.3,6.6,110.8,0,102.7,0
		 M44,5.9h58.7c3.7,0,7.1,2.4,8.3,5.9H35.7C37,8.2,40.3,5.9,44,5.9 M35.2,17.6h76.3v62.1c-1.9-0.7-4-0.7-5.9,0V38.1
		c0-1.6-1.3-2.9-2.9-2.9H52.8c-4.3-5.7-10.6-9.7-17.6-11.1V17.6z M90.9,46.9H79.2c-1.6,0-2.9,1.3-2.9,2.9v11.7
		c0,1.6,1.3,2.9,2.9,2.9h9.3c-0.3,0.9-0.5,1.9-0.5,2.9v2.9h-8.8c-1.6,0-2.9,1.3-2.9,2.9v11.7c0,1.6,1.3,2.9,2.9,2.9H88v13.6
		c-1,0.2-2,0.5-2.9,0.9v-5.6c0-1.6-1.3-2.9-2.9-2.9H64.5c-1.6,0-2.9,1.3-2.9,2.9v14.7H46.9V76.3c4-3,7.2-7.1,9.3-11.7h11.3
		c1.6,0,2.9-1.3,2.9-2.9V49.9c0-1.6-1.3-2.9-2.9-2.9h-9.4c-0.4-2-1-4-1.9-5.9h43.5v18.1c-1.9-0.7-4-0.7-5.9,0v-9.3
		C93.9,48.2,92.6,46.9,90.9,46.9 M88,58.7h-5.9v-5.9H88V58.7z M88,82.1h-5.9v-5.9H88V82.1z M79.2,99.7v7.7c-0.8,1.2-1.4,2.6-1.9,4
		h-9.9V99.7H79.2z M58.7,52.8h5.9v5.9h-5.9V52.8z M29.3,76.3c-13,0-23.5-10.5-23.5-23.5c0-13,10.5-23.5,23.5-23.5
		s23.5,10.5,23.5,23.5C52.8,65.8,42.3,76.3,29.3,76.3 M35.2,81.5c2-0.4,4-1,5.9-1.9v34.7c0,1.6,1.3,2.9,2.9,2.9h32.3
		c0,0.5,0,1,0,1.6v16H35.2V81.5z M44,146.7c-3.7,0-7-2.4-8.3-5.9h42.6l3.4,5.9H44z M120.3,88c1.6,0,2.9,1.3,2.9,2.9v26.4
		c0,1.6,1.3,2.9,2.9,2.9s2.9-1.3,2.9-2.9V99.7c0-1.6,1.3-2.9,2.9-2.9c1.6,0,2.9,1.3,2.9,2.9V136l-5.7,15.6c-0.1,0.3-0.2,0.7-0.2,1
		v17.5H90.9v-18.3c0-0.5-0.1-1-0.4-1.5l-8.4-14.7v-16.8c0-3,0.6-9.5,5.9-11.3v9.7c0,1.6,1.3,2.9,2.9,2.9c1.6,0,2.9-1.3,2.9-2.9
		v-11.7c0-0.2,0-0.5-0.1-0.7c0.1-0.2,0.1-0.5,0.1-0.7V67.5c0-1.6,1.3-2.9,2.9-2.9s2.9,1.3,2.9,2.9v40c0,1.6,1.3,2.9,2.9,2.9
		c1.6,0,2.9-1.3,2.9-2.9V88c0-1.6,1.3-2.9,2.9-2.9c1.6,0,2.9,1.3,2.9,2.9v23.5c0,1.6,1.3,2.9,2.9,2.9s2.9-1.3,2.9-2.9V90.9
		C117.3,89.3,118.6,88,120.3,88"/>
	<path class="st0" d="M67.5,70.4H55.7c-1.6,0-2.9,1.3-2.9,2.9v11.7c0,1.6,1.3,2.9,2.9,2.9h11.7c1.6,0,2.9-1.3,2.9-2.9V73.3
		C70.4,71.7,69.1,70.4,67.5,70.4 M64.5,82.1h-5.9v-5.9h5.9V82.1z"/>
	<path class="st0" d="M39,41.9L23.5,57.5l-3.8-3.8c-1.1-1.1-3-1.1-4.1,0c-1.1,1.1-1.1,3,0,4.1l5.9,5.9c1.1,1.1,3,1.1,4.1,0v0
		l17.6-17.6c1.1-1.1,1.1-3,0-4.1C42,40.8,40.1,40.8,39,41.9"/>
	<path class="st0" d="M67.5,29.3h35.2c1.6,0,2.9-1.3,2.9-2.9c0-1.6-1.3-2.9-2.9-2.9H67.5c-1.6,0-2.9,1.3-2.9,2.9
		C64.5,28,65.8,29.3,67.5,29.3"/>
	<path class="st0" d="M55.7,23.5c1.6,0,2.9,1.3,2.9,2.9c0,1.6-1.3,2.9-2.9,2.9c-1.6,0-2.9-1.3-2.9-2.9
		C52.8,24.8,54.1,23.5,55.7,23.5"/>
	<path class="st0" d="M55.7,123.2H44c-1.6,0-2.9,1.3-2.9,2.9c0,1.6,1.3,2.9,2.9,2.9h11.7c1.6,0,2.9-1.3,2.9-2.9
		C58.7,124.5,57.4,123.2,55.7,123.2"/>
</g>
</svg>
