<?xml version="1.0" encoding="utf-8"?>
<!-- Generator: Adobe Illustrator 21.0.0, SVG Export Plug-In . SVG Version: 6.00 Build 0)  -->
<svg version="1.1" id="Layer_1" xmlns="http://www.w3.org/2000/svg" xmlns:xlink="http://www.w3.org/1999/xlink" x="0px" y="0px"
	 viewBox="0 0 108.3 107.3" style="enable-background:new 0 0 108.3 107.3;" xml:space="preserve">
<style type="text/css">
	.st0{fill:#279E64;}
</style>
<path class="st0" d="M66,54.3c0.7,0,1.4-0.5,1.4-1.1v-1.6c5-0.7,8.4-3.8,8.4-9.5c0-6.3-4.4-8.3-8.4-9.8v-9.4
	c3.2,0.2,4.4,1.7,5.5,1.7c1.4,0,2-1.8,2-2.6c0-2.3-4.4-3.2-7.6-3.3v-1.2c0-0.6-0.7-1.1-1.4-1.1c-0.8,0-1.3,0.5-1.3,1.1v1.3
	c-4.4,0.5-8.8,2.8-8.8,8.6c0,5.9,4.6,7.6,8.8,9v10.8c-4.7-0.4-6-3.6-7.5-3.6c-1.2,0-2.1,1.5-2.1,2.6c0,2.3,3.9,5.4,9.6,5.4v1.4
	C64.7,53.8,65.2,54.3,66,54.3 M67.1,37.6c2.3,1,4.1,2.3,4.1,5.2c0,2.6-1.6,4.1-4.1,4.6V37.6z M60.5,27c0-2.4,1.8-3.6,4.4-3.9v8.4
	C62.5,30.6,60.5,29.7,60.5,27"/>
<path class="st0" d="M32,46.6L32,46.6c-0.3,4.7,2.3,9.1,6.7,11.2l0,0c1.5,0.7,2.8,1.9,3.6,3.4l0,0c2.2,4.1,6.7,6.7,11.5,6.4l0.1,0
	c1.7-0.1,3.5,0.4,4.9,1.3c4.1,2.5,9.2,2.5,13.3,0c1.5-0.9,3.2-1.4,4.9-1.3l0.1,0c4.8,0.3,9.3-2.3,11.5-6.4l0,0
	c0.8-1.5,2-2.7,3.6-3.4l0,0c4.3-2.1,6.9-6.5,6.7-11.2l0-0.1c-0.1-1.6,0.4-3.3,1.3-4.6c2.7-3.9,2.7-9.1,0-13c-0.9-1.4-1.4-3-1.3-4.6
	l0-0.1c0.3-4.7-2.4-9.1-6.7-11.2l0,0c-1.5-0.7-2.8-1.9-3.6-3.4l0,0c-2.2-4.1-6.7-6.7-11.5-6.4l-0.1,0c-1.7,0.1-3.5-0.4-4.9-1.3h0
	c-4.1-2.5-9.2-2.5-13.3,0c-1.5,0.9-3.2,1.4-4.9,1.3l-0.1,0C49,2.9,44.5,5.4,42.3,9.6l0,0c-0.8,1.5-2,2.7-3.6,3.4l0,0
	c-4.3,2.1-6.9,6.5-6.7,11.2l0,0.1c0.1,1.6-0.4,3.3-1.3,4.6c-2.7,3.9-2.7,9.1,0,13C31.7,43.3,32.1,44.9,32,46.6 M34,31.2
	c1.4-2.1,2.1-4.6,2-7.2l0-0.1c-0.1-3.1,1.6-6,4.4-7.3l0,0c2.3-1.1,4.2-2.9,5.4-5.2l0,0c1.4-2.8,4.5-4.4,7.7-4.3l0.1,0
	c2.6,0.1,5.1-0.5,7.3-1.9c2.8-1.7,6.2-1.7,9,0c2.2,1.4,4.7,2,7.3,1.9l0.1,0c3.2-0.2,6.2,1.5,7.7,4.2l0,0.1c1.2,2.3,3.1,4.1,5.4,5.2
	l0,0c2.9,1.4,4.6,4.2,4.4,7.3l0,0.1c-0.1,2.5,0.6,5.1,2,7.2c1.7,2.5,1.7,5.9,0,8.4c-1.4,2.1-2.1,4.6-2,7.2l0,0.1
	c0.2,3-1.6,5.9-4.4,7.3l0,0c-2.3,1.1-4.2,2.9-5.4,5.2l0,0c-1.4,2.8-4.5,4.4-7.7,4.3l-0.1,0c-2.6-0.1-5.1,0.5-7.3,1.9
	c-2.8,1.7-6.2,1.7-9,0c-2-1.3-4.3-1.9-6.6-1.9c-0.2,0-0.5,0-0.7,0l-0.1,0c-3.2,0.2-6.2-1.5-7.7-4.3l0,0c-1.2-2.3-3.1-4.1-5.4-5.2
	l0,0c-2.9-1.4-4.6-4.3-4.4-7.3l0-0.1c0.1-2.5-0.6-5.1-2-7.2C32.3,37.1,32.3,33.8,34,31.2L34,31.2z"/>
<path class="st0" d="M108.1,78.7c-2.7-4.7-8.6-6.5-13.5-4.1l-15.8,7.5c-2.2-4.1-6.4-6.6-11-6.8l-14.6-0.4c-2.3-0.1-4.6-0.7-6.6-1.7
	l-1.5-0.8c-7.6-4-16.7-4-24.2,0l0.1-3.4c0-1.1-0.8-2-2-2.1L3,66.6c-1.1,0-2,0.8-2.1,2l-1,35.1c0,1.1,0.8,2,2,2.1l16,0.4H18
	c1.1,0,2-0.9,2-2l0-1.7l4.2-2.2c1.6-0.9,3.5-1.1,5.3-0.6l24.8,7c0,0,0.1,0,0.1,0c1.8,0.4,3.6,0.6,5.5,0.6c3.9,0,7.7-0.8,11.2-2.5
	c0.1,0,0.2-0.1,0.3-0.1l36-23.3C108.3,80.9,108.6,79.7,108.1,78.7 M4.1,101.8l0.9-31.1l12,0.3L16,102.1L4.1,101.8z M69.4,101.2
	c-4.4,2-9.3,2.5-14,1.6l-24.7-6.9c-2.8-0.8-5.8-0.5-8.3,0.9l-2.1,1.1l0.6-20.7c6.7-4.5,15.4-4.9,22.5-1.2l1.5,0.8
	c2.6,1.3,5.5,2.1,8.4,2.2l14.6,0.4c4.1,0.1,7.6,3,8.4,7l-21.7-0.6c-1.1,0-2,0.8-2.1,2c0,1.1,0.8,2,2,2.1l24,0.7h0.1c1.1,0,2-0.9,2-2
	c0-0.9,0-1.8-0.2-2.6l16.2-7.7l0,0c2.3-1.2,5.1-0.8,7,1L69.4,101.2z"/>
</svg>
