<?xml version="1.0" encoding="utf-8"?>
<!-- Generator: Adobe Illustrator 21.0.0, SVG Export Plug-In . SVG Version: 6.00 Build 0)  -->
<svg version="1.1" id="Layer_1" xmlns="http://www.w3.org/2000/svg" xmlns:xlink="http://www.w3.org/1999/xlink" x="0px" y="0px"
	 viewBox="0 0 74.7 83.2" style="enable-background:new 0 0 74.7 83.2;" xml:space="preserve">
<style type="text/css">
	.st0{fill:#279E64;}
	.st1{fill:none;}
</style>
<path class="st0" d="M51.6,0c-0.7,0.2-1.3,0.9-1.3,1.6v7.4c0,0.8,0.5,1.5,1.3,1.6c1.1,0.2,2-0.6,2-1.6V1.6C53.6,0.6,52.7-0.2,51.6,0
	"/>
<path class="st0" d="M74.7,47c-0.2-3.5-3.1-6.1-6.6-6.1h-12c1.9-4.8,2.6-10.5,2.5-15.5c0-1-0.1-1.5-0.1-1.9
	c-0.1-3.8-3.4-6.7-7.2-6.3c-3.3,0.4-5.8,3.2-5.8,6.6v1.5c0,10.3-13.2,16-23.2,18.5c-0.8-1.7-2.5-2.9-4.5-2.9H1.6
	c-0.9,0-1.6,0.7-1.6,1.6v39c0,0.9,0.7,1.6,1.6,1.6h16.2c2,0,3.7-1.2,4.5-2.9c0.8,0.2,1.6,0.4,2.3,0.6c5.7,1.5,8.8,2.3,16.4,2.3h17.4
	c3.4,0,6.3-2.5,6.6-5.9c0.1-1.6-0.3-3-1.1-4.2c2.5-0.9,4.3-3.3,4.3-6.1c0-1.3-0.4-2.6-1.1-3.6c2.5-0.9,4.3-3.3,4.3-6.1
	c0-1.3-0.4-2.6-1.1-3.6C73,52.7,74.9,50.1,74.7,47 M19.5,78.3c0,0.9-0.7,1.6-1.6,1.6H3.2V44.2h14.6c0.9,0,1.6,0.7,1.6,1.6V78.3z
	 M68.2,50.7h-8.1c-0.8,0-1.5,0.5-1.6,1.3c-0.2,1.1,0.6,2,1.6,2h4.8c1.6,0,3.1,1.2,3.3,2.8c0.3,2-1.3,3.7-3.2,3.7h-8.1
	c-0.8,0-1.5,0.5-1.6,1.3c-0.2,1.1,0.6,2,1.6,2h4.9c1.8,0,3.4,1.5,3.2,3.4c-0.1,1.7-1.6,3.1-3.3,3.1h-8c-0.8,0-1.5,0.5-1.6,1.3
	c-0.2,1.1,0.6,2,1.6,2h4.8c1.6,0,3,1.2,3.3,2.8c0.3,2-1.3,3.7-3.2,3.7H41c-7.2,0-10-0.7-15.6-2.2c-0.8-0.2-1.7-0.4-2.7-0.7V47.1
	c11.8-2.8,26-9.6,26-21.8v-1.6c0-1.6,1.2-3,2.8-3.3c2-0.3,3.7,1.3,3.7,3.2v0c0,0.7,0.9,9.4-2.7,17.2h-5.4c-0.8,0-1.5,0.5-1.6,1.3
	c-0.2,1.1,0.6,2,1.6,2h21.1c1.6,0,3.1,1.2,3.3,2.8C71.7,49,70.2,50.7,68.2,50.7"/>
<path class="st0" d="M39,20.5h-6.5c-0.8,0-1.5,0.5-1.6,1.3c-0.2,1.1,0.6,2,1.6,2h6.5c0.8,0,1.5-0.5,1.6-1.3
	C40.8,21.4,40,20.5,39,20.5"/>
<path class="st0" d="M71.5,20.5H65c-0.8,0-1.5,0.5-1.6,1.3c-0.2,1.1,0.6,2,1.6,2h6.5c0.8,0,1.5-0.5,1.6-1.3
	C73.3,21.4,72.5,20.5,71.5,20.5"/>
<path class="st0" d="M66.9,7.2c-0.6-0.6-1.7-0.6-2.3,0L60,11.8c-0.6,0.6-0.6,1.7,0,2.3c0.6,0.6,1.7,0.6,2.3,0l4.6-4.6
	C67.6,8.8,67.6,7.8,66.9,7.2"/>
<path class="st0" d="M43.9,11.8l-4.6-4.6c-0.6-0.6-1.7-0.6-2.3,0c-0.6,0.6-0.6,1.7,0,2.3l4.6,4.6c0.6,0.6,1.7,0.6,2.3,0
	C44.6,13.4,44.6,12.4,43.9,11.8"/>
<rect y="0" class="st1" width="74.7" height="83.2"/>
</svg>
