<?xml version="1.0" encoding="utf-8"?>
<!-- Generator: Adobe Illustrator 21.0.0, SVG Export Plug-In . SVG Version: 6.00 Build 0)  -->
<svg version="1.1" id="Layer_1" xmlns="http://www.w3.org/2000/svg" xmlns:xlink="http://www.w3.org/1999/xlink" x="0px" y="0px"
	 viewBox="0 0 43.2 42" style="enable-background:new 0 0 43.2 42;" xml:space="preserve">
<style type="text/css">
	.st0{fill:#279E64;}
</style>
<path class="st0" d="M34.8,42c-0.7,0-1.4-0.3-1.8-0.9l-7-8.5H7.7c-4.3,0-7.7-3.5-7.7-7.7V7.7C0,3.5,3.5,0,7.7,0h27.7
	c4.3,0,7.7,3.5,7.7,7.7v17.1c0,3.8-2.8,7-6.4,7.6l0.4,7c0.1,1.1-0.5,2-1.5,2.4C35.4,41.9,35.1,42,34.8,42 M34.6,39.6L34.6,39.6
	L34.6,39.6z M7.7,2.6c-2.8,0-5.2,2.3-5.2,5.2v17.1c0,2.8,2.3,5.2,5.2,5.2h18.8c0.4,0,0.8,0.2,1,0.5l7.1,8.6l-0.4-7.7
	c0-0.4,0.1-0.7,0.4-1s0.6-0.4,0.9-0.4c2.8,0,5.2-2.3,5.2-5.2V7.7c0-2.8-2.3-5.2-5.2-5.2H7.7z"/>
<path class="st0" d="M33.7,14.4H9.8c-0.7,0-1.3-0.6-1.3-1.3c0-0.7,0.6-1.3,1.3-1.3h23.9c0.7,0,1.3,0.6,1.3,1.3
	C35,13.8,34.4,14.4,33.7,14.4"/>
<path class="st0" d="M33.7,22.7H9.8c-0.7,0-1.3-0.6-1.3-1.3c0-0.7,0.6-1.3,1.3-1.3h23.9c0.7,0,1.3,0.6,1.3,1.3
	C35,22.1,34.4,22.7,33.7,22.7"/>
</svg>
