<?xml version="1.0" encoding="utf-8"?>
<!-- Generator: Adobe Illustrator 21.0.0, SVG Export Plug-In . SVG Version: 6.00 Build 0)  -->
<svg version="1.1" id="Layer_1" xmlns="http://www.w3.org/2000/svg" xmlns:xlink="http://www.w3.org/1999/xlink" x="0px" y="0px"
	 viewBox="0 0 296 296" style="enable-background:new 0 0 296 296;" xml:space="preserve">
<style type="text/css">
	.st0{fill:#FFFFFF;}
</style>
<path class="st0" d="M148,0C66.4,0,0,66.4,0,148c0,81.6,66.4,148,148,148c81.6,0,148-66.4,148-148C296,66.4,229.6,0,148,0 M148,280
	c-36.3,0-69.1-14.7-93-38.4c-9.5-9.5-17.6-20.4-23.9-32.4C21.4,190.8,16,170,16,148C16,75.2,75.2,16,148,16
	c34.5,0,66,13.3,89.5,35.1c12.2,11.3,22.3,24.8,29.6,40c8.3,17.2,12.9,36.5,12.9,56.9C280,220.8,220.8,280,148,280"/>
<path class="st0" d="M99.7,99c8.8,0,16,7.2,16,16c0,8.8-7.2,16-16,16s-16-7.2-16-16C83.7,106.2,90.8,99,99.7,99"/>
<path class="st0" d="M198.7,99c8.8,0,16,7.2,16,16c0,8.8-7.2,16-16,16c-8.8,0-16-7.2-16-16C182.7,106.2,189.8,99,198.7,99"/>
<path class="st0" d="M147.7,230c28.1,0,55.1-13,72.5-35c2.9-3.7,2-9.1-2-11.7l0,0c-3.4-2.2-8-1.5-10.6,1.7
	c-16.2,20.4-42.3,31.5-68.5,28.5c-19.9-2.3-38.4-12.8-50.9-28.4c-2.6-3.2-7.1-4-10.6-1.7c-4,2.6-4.9,8-1.9,11.7
	c15.1,18.9,37.5,31.6,61.5,34.4C140.8,229.8,144.3,230,147.7,230"/>
</svg>
