<?xml version="1.0" encoding="utf-8"?>
<!-- Generator: Adobe Illustrator 21.0.0, SVG Export Plug-In . SVG Version: 6.00 Build 0)  -->
<svg version="1.1" id="Layer_1" xmlns="http://www.w3.org/2000/svg" xmlns:xlink="http://www.w3.org/1999/xlink" x="0px" y="0px"
	 viewBox="0 0 41.3 56.4" style="enable-background:new 0 0 41.3 56.4;" xml:space="preserve">
<style type="text/css">
	.st0{clip-path:url(#SVGID_2_);}
</style>
<g>
	<defs>
		<rect id="SVGID_1_" y="0" width="41.3" height="56.4"/>
	</defs>
	<clipPath id="SVGID_2_">
		<use xlink:href="#SVGID_1_"  style="overflow:visible;"/>
	</clipPath>
	<path class="st0" d="M38.8,0H2.5C1.1,0,0,1.1,0,2.5v51.4c0,1,0.5,1.8,1.4,2.3c0.4,0.2,0.7,0.3,1.1,0.3c0.5,0,1.1-0.2,1.5-0.5
		l16.6-12.6l16.6,12.6c0.8,0.6,1.8,0.7,2.6,0.3c0.9-0.4,1.4-1.3,1.4-2.3V2.5C41.3,1.1,40.2,0,38.8,0 M37.6,51.5L22.2,39.8
		c-0.9-0.7-2.2-0.7-3.1,0L3.7,51.5V3.7h4.6V15c0,1,0.8,1.9,1.9,1.9c1,0,1.9-0.8,1.9-1.9V3.7h25.5V51.5z"/>
</g>
</svg>
