<?xml version="1.0" encoding="utf-8"?>
<!-- Generator: Adobe Illustrator 21.0.0, SVG Export Plug-In . SVG Version: 6.00 Build 0)  -->
<svg version="1.1" id="Layer_1" xmlns="http://www.w3.org/2000/svg" xmlns:xlink="http://www.w3.org/1999/xlink" x="0px" y="0px"
	 viewBox="0 0 448 399.6" style="enable-background:new 0 0 448 399.6;" xml:space="preserve">
<style type="text/css">
	.st0{fill:#279E64;}
</style>
<path class="st0" d="M140.4,293c-1.5-4.2-6.1-6.3-10.2-4.8c-4.2,1.5-6.3,6.1-4.8,10.2c1.5,4.3,2.3,8.8,2.3,13.5
	c0,22-17.9,39.8-39.8,39.8c-22,0-39.8-17.9-39.8-39.8c0-22,17.9-39.8,39.8-39.8c4.4,0,8.7,0.7,12.9,2.1c4.2,1.4,8.7-0.8,10.2-5
	c1.4-4.2-0.8-8.7-5-10.2c-5.8-2-11.9-3-18-3C57,256,32,281,32,311.8c0,30.8,25,55.8,55.8,55.8s55.8-25,55.8-55.8
	C143.7,305.3,142.6,299,140.4,293"/>
<path class="st0" d="M448,383.1c-0.3-21.6-18-39.1-39.8-39.1h-8.6V79.9c0-35.3-28.7-64-64-64h-80.3V8c0-4.4-3.6-8-8-8h-55.6
	c-44.1,0-80,35.9-80,80v104.1H55.6c-17.6,0-32,14.4-32,32v35.6c0,0.1,0,0.2,0,0.3C9,267.7,0,288.7,0,311.8
	c0,48.4,39.4,87.8,87.8,87.8c13.2,0,25.7-2.9,36.9-8.2c0.1,0,0.2,0,0.3,0h170.3c17.6,0,32-14.4,32-32v-67.7
	c0-59.4-48.3-107.7-107.7-107.7h-59.9V80c0-17.6,14.4-32,32-32h55.6c4.4,0,8-3.6,8-8v-8.1h80.3c26.5,0,48,21.5,48,48V344h-8.2
	c-21.9,0-39.8,17.8-39.8,39.8c0,4.4,3.6,8,8,8H440h0c4.4,0,8-3.6,8-8C448,383.5,448,383.3,448,383.1 M16,311.8
	c0-39.6,32.2-71.8,71.8-71.8c39.6,0,71.8,32.2,71.8,71.8c0,39.6-32.2,71.8-71.8,71.8C48.2,383.6,16,351.4,16,311.8 M311.3,291.8V344
	H296c-4.4,0-8,3.6-8,8c0,4.4,3.6,8,8,8h15.3c-0.2,8.6-7.3,15.5-16,15.5H148.3c4.9-4.7,9.3-9.9,13-15.5h102.2c4.4,0,8-3.6,8-8
	c0-4.4-3.6-8-8-8h-93.9c3.9-10,6.1-20.8,6.1-32.2c0-48.4-39.4-87.8-87.8-87.8c-17.8,0-34.4,5.3-48.3,14.5v-22.4c0-8.8,7.2-16,16-16
	h164.1C270.2,200.1,311.3,241.2,311.3,291.8 M143.7,80v104.1h-16V80c0-35.3,28.7-64,64-64h47.6v16h-47.6
	C165.2,32,143.7,53.5,143.7,80 M353,375.7c3.3-9.2,12.1-15.8,22.4-15.8h32.8c10.3,0,19.1,6.6,22.4,15.8H353z"/>
</svg>
