<?xml version="1.0" encoding="utf-8"?>
<!-- Generator: Adobe Illustrator 21.0.0, SVG Export Plug-In . SVG Version: 6.00 Build 0)  -->
<svg version="1.1" id="Layer_1" xmlns="http://www.w3.org/2000/svg" xmlns:xlink="http://www.w3.org/1999/xlink" x="0px" y="0px"
	 viewBox="0 0 40.8 58" style="enable-background:new 0 0 40.8 58;" xml:space="preserve">
<style type="text/css">
	.st0{fill:#FFDC00;}
</style>
<path class="st0" d="M20.4,0C9.1,0,0,9.1,0,20.4c0,3.8,1.1,7.5,3,10.7l16.2,26.1c0.3,0.5,0.9,0.8,1.4,0.8h0c0.6,0,1.1-0.3,1.4-0.8
	l15.8-26.3c1.9-3.1,2.9-6.8,2.9-10.4C40.8,9.1,31.6,0,20.4,0 M35,29.1L20.6,53L5.9,29.3c-1.7-2.7-2.6-5.8-2.6-8.9
	c0-9.4,7.6-17,17-17s17,7.6,17,17C37.4,23.5,36.6,26.5,35,29.1"/>
<path class="st0" d="M20.4,10.2c-5.6,0-10.2,4.6-10.2,10.2c0,5.6,4.5,10.2,10.2,10.2c5.8,0,10.2-4.7,10.2-10.2
	C30.6,14.8,26,10.2,20.4,10.2 M20.4,27.2c-3.8,0-6.8-3.1-6.8-6.8c0-3.7,3.1-6.8,6.8-6.8s6.8,3.1,6.8,6.8
	C27.2,24.1,24.2,27.2,20.4,27.2"/>
</svg>
