<?xml version="1.0" encoding="utf-8"?>
<!-- Generator: Adobe Illustrator 21.0.0, SVG Export Plug-In . SVG Version: 6.00 Build 0)  -->
<svg version="1.1" id="Layer_1" xmlns="http://www.w3.org/2000/svg" xmlns:xlink="http://www.w3.org/1999/xlink" x="0px" y="0px"
	 viewBox="0 0 58.9 69.2" style="enable-background:new 0 0 58.9 69.2;" xml:space="preserve">
<style type="text/css">
	.st0{clip-path:url(#SVGID_2_);}
</style>
<g>
	<defs>
		<rect id="SVGID_1_" y="0" width="58.9" height="69.2"/>
	</defs>
	<clipPath id="SVGID_2_">
		<use xlink:href="#SVGID_1_"  style="overflow:visible;"/>
	</clipPath>
	<path class="st0" d="M29.2,37.3h0.2h0.1h0.1c4.2-0.1,7.6-1.5,10.1-4.4c5.5-6.2,4.6-16.9,4.5-17.9c-0.4-7.6-4-11.3-7-13
		c-2.2-1.3-4.8-2-7.7-2h-0.1h-0.1h-0.1c-1.6,0-4.7,0.3-7.7,2c-3,1.7-6.7,5.4-7,13.1c-0.1,1-1,11.7,4.5,17.9
		C21.6,35.8,25,37.2,29.2,37.3 M18.4,15.4c0,0,0-0.1,0-0.1C18.9,5,26.2,3.9,29.3,3.9h0.1h0.1C33.4,4,40,5.5,40.4,15.3
		c0,0,0,0.1,0,0.1c0,0.1,1,9.9-3.5,15c-1.8,2-4.2,3-7.4,3.1h-0.1h-0.1c-3.2,0-5.6-1-7.4-3.1C17.4,25.3,18.4,15.5,18.4,15.4"/>
	<path class="st0" d="M58.9,55L58.9,55c0-0.2,0-0.3,0-0.4c-0.1-2.8-0.3-9.5-6.5-11.6c0,0-0.1,0-0.1,0c-6.5-1.6-11.8-5.4-11.9-5.4
		c-0.9-0.6-2.1-0.4-2.7,0.5c-0.6,0.9-0.4,2.1,0.5,2.7c0.2,0.2,6,4.1,13.1,6c3.3,1.2,3.7,4.8,3.8,8c0,0.1,0,0.2,0,0.4
		c0,1.3-0.1,3.3-0.3,4.4c-2.3,1.3-11.4,5.9-25.3,5.9c-13.8,0-23-4.6-25.3-5.9c-0.2-1.1-0.3-3.1-0.3-4.4c0-0.1,0-0.2,0-0.4
		c0.1-3.3,0.5-6.8,3.8-8c7.1-1.8,12.8-5.8,13.1-6c0.9-0.6,1.1-1.8,0.5-2.7c-0.6-0.9-1.8-1.1-2.7-0.5c-0.1,0-5.4,3.8-11.9,5.4
		c-0.1,0-0.1,0-0.1,0C0.3,45.1,0.1,51.8,0,54.6c0,0.1,0,0.2,0,0.4v0c0,0.7,0,4.6,0.7,6.5c0.1,0.4,0.4,0.7,0.7,0.9
		c0.4,0.3,10.7,6.9,28,6.9c17.3,0,27.6-6.6,28-6.9c0.3-0.2,0.6-0.5,0.7-0.9C58.9,59.6,58.9,55.8,58.9,55"/>
</g>
</svg>
