<?xml version="1.0" encoding="utf-8"?>
<!-- Generator: Adobe Illustrator 21.0.0, SVG Export Plug-In . SVG Version: 6.00 Build 0)  -->
<svg version="1.1" id="Layer_1" xmlns="http://www.w3.org/2000/svg" xmlns:xlink="http://www.w3.org/1999/xlink" x="0px" y="0px"
	 viewBox="0 0 73.4 56.3" style="enable-background:new 0 0 73.4 56.3;" xml:space="preserve">
<style type="text/css">
	.st0{fill:#00B3EF;}
</style>
<g>
	<path class="st0" d="M69.6,0.1H3.5c-2,0-3.7,1.6-3.7,3.7v48.9c0,2,1.6,3.7,3.7,3.7h66.1c2,0,3.7-1.6,3.7-3.7V3.8
		C73.3,1.8,71.6,0.1,69.6,0.1 M70.8,52.7c0,0.7-0.5,1.2-1.2,1.2H3.5c-0.7,0-1.2-0.5-1.2-1.2V3.8c0-0.7,0.5-1.2,1.2-1.2h66.1
		c0.7,0,1.2,0.5,1.2,1.2V52.7z"/>
	<path class="st0" d="M67.3,5c-0.3,0-0.6,0.1-0.9,0.3L38.1,29c-0.9,0.8-2.2,0.8-3.1,0L6.8,5.3C6.4,5,6,4.9,5.6,5.1
		C5.2,5.2,4.9,5.6,4.8,6s0.1,0.9,0.4,1.1l28.2,23.7c1.8,1.5,4.5,1.5,6.3,0L67.9,7.2c0.2-0.2,0.4-0.5,0.4-0.8c0-0.3-0.1-0.6-0.3-0.9
		C67.9,5.2,67.6,5.1,67.3,5"/>
	<path class="st0" d="M23.4,30.7c-0.4-0.1-0.9,0-1.2,0.4L5.1,49.4c-0.3,0.3-0.4,0.8-0.3,1.2c0.1,0.4,0.5,0.7,0.9,0.8
		c0.4,0.1,0.9,0,1.2-0.4L24,32.8c0.3-0.3,0.4-0.8,0.3-1.2C24.2,31.1,23.8,30.8,23.4,30.7"/>
	<path class="st0" d="M50.9,31.1c-0.3-0.3-0.7-0.5-1.2-0.4c-0.4,0.1-0.8,0.4-0.9,0.8c-0.1,0.4,0,0.9,0.3,1.2l17.1,18.3
		c0.5,0.5,1.2,0.5,1.7,0c0.5-0.5,0.5-1.2,0.1-1.7L50.9,31.1z"/>
</g>
</svg>
