<?xml version="1.0" encoding="utf-8"?>
<!-- Generator: Adobe Illustrator 21.0.0, SVG Export Plug-In . SVG Version: 6.00 Build 0)  -->
<svg version="1.1" id="Layer_1" xmlns="http://www.w3.org/2000/svg" xmlns:xlink="http://www.w3.org/1999/xlink" x="0px" y="0px"
	 viewBox="0 0 511.5 512" style="enable-background:new 0 0 511.5 512;" xml:space="preserve">
<style type="text/css">
	.st0{fill:#279E64;}
</style>
<path class="st0" d="M504,418.1c-4.1,0-7.5,3.4-7.5,7.5V504c0,9.7,15,9.7,15,0v-78.4C511.5,421.4,508.1,418.1,504,418.1"/>
<path class="st0" d="M504,249.1h-58.8v-27h18c11,0,19.9-8.9,19.9-19.9V19.9c0-11-8.9-19.9-19.9-19.9H183.6c-11,0-19.9,8.9-19.9,19.9
	v26.9c0,9.7,15,9.7,15,0V19.9c0-2.7,2.2-4.9,4.9-4.9h279.5c2.7,0,4.9,2.2,4.9,4.9v145.3h-22.9V85.3c0-2.5-1.2-4.8-3.3-6.2
	c-2-1.4-4.6-1.7-6.9-0.8c-2,0.8-43.3,17.6-52.1,86.8H178.8V85.7c0-9.7-15-9.7-15,0v116.5c0,11,8.9,19.9,19.9,19.9h100.6v27H114.2
	c16.6-16.6,18.2-42.8,18.2-64.9c0-4.1-3.4-7.5-7.5-7.5H84.4v-14.1c24,5.1,50.2-14.6,49.9-39.6c0-3.3-0.5-6.8-3.6-8.8
	c-14.2-9.4-33.8-5.5-46.4,4.8v-13.5c21.4-14.8,23-49.6,2.4-65.8c-2.1-1.6-4.4-3.2-6.8-4.2c-10.6-4.3-22.2,14.5-24.7,21.8
	c-5.9,17.2-0.6,36.9,14.1,47.8v13.9c-9.6-7.8-22.2-11.7-34.4-9.2c-5.1,1-14,3.3-15.1,9.5c-4.8,26.4,25.2,48.6,49.5,43.5v14.1H26
	c-4.1,0-7.5,3.4-7.5,7.5c0,22,1.2,48.3,17.8,64.9H7.5c-4.1,0-7.5,3.4-7.5,7.5V504c0,9.7,15,9.7,15,0v-35h135.4v35c0,9.7,15,9.7,15,0
	V313.2h265c0,2.6,0.3,16.7,0.3,20.9H303.8c-29.6,0-51.6,7.7-65.2,22.9c-16.4,18.3-14.2,40.4-14.1,41.3c0.4,3.8,3.6,6.7,7.5,6.7h96.8
	v13.5h-29.5c-9.7,0-9.7,15,0,15h29.5v63h-95.9c-9.7,0-9.7,15,0,15h100.7c0.8,0.3,1.7,0.5,2.7,0.5s1.8-0.2,2.7-0.5h100.7
	c9.7,0,9.7-15,0-15h-95.9V405h50.1c17.2,0,29.6-4.1,38-12.7c14.7-15,14.2-40,13.7-71.7c0-2.5-0.1-4.9-0.1-7.5h51.2v70.4
	c0,9.7,15,9.7,15,0v-127C511.5,252.5,508.1,249.1,504,249.1 M96.9,128.4c9.6-6.1,18-4.7,22.4-3.1c-1.3,15.5-20.2,26.8-34.6,21.9
	C85.3,142.4,87.7,134.2,96.9,128.4 M47.1,144c-6.4-4-11.8-11-12.5-18.7c15-5.3,32.7,6.4,34.6,21.9C62,149.6,53.5,148,47.1,144
	 M77.3,51.1c12.5,9.5,12,31.3,0,41c-3.7-3.1-9.3-9.5-9.3-20.4C68,60.3,73.7,54,77.3,51.1 M33.6,191.7h83.7
	c-1.3,40.5-13.3,56.4-41.8,56.4C46.5,248.2,34.8,232.7,33.6,191.7 M421,381.8c-5.4,5.5-14.4,8.2-27.3,8.2H239.5c0.7-6,3-15,10.2-23
	c10.7-11.9,28.9-17.9,54.1-17.9h126.6C429.8,363.8,427.6,375.2,421,381.8 M468,180.1v22.1c0,2.7-2.2,4.9-4.9,4.9h-18v-27H468z
	 M418.5,111.3c4.1-5.4,8.2-9.4,11.7-12.3v187.7c-3.5-3-7.6-7.1-11.6-12.6c-14.6-19.7-22.3-48-22.3-81.8
	C396.2,158.5,403.9,130.5,418.5,111.3 M383.2,222.1c1.4,10.1,3.6,19.1,6.1,27h-26.9v-27H383.2z M178.8,202.2v-22.1h202.8
	c-0.5,9-0.4,18,0.2,27H183.6C180.9,207.1,178.8,204.9,178.8,202.2 M299.3,222.1h48.3v27h-48.3V222.1z M395.3,264.1
	c7.8,16.7,17.5,27.5,25.3,34.1H15v-34.1H395.3z M15,391.1h135.4v62.9H15V391.1z M150.4,376.1H15v-62.9h135.4V376.1z M445.2,264.1
	h51.3v34.1h-51.3V264.1z"/>
<path class="st0" d="M54.4,352.2h56.9c9.7,0,9.7-15,0-15H54.4C44.8,337.2,44.8,352.2,54.4,352.2"/>
<path class="st0" d="M111.4,415.1H54.4c-9.7,0-9.7,15,0,15h56.9C121.1,430.1,121.1,415.1,111.4,415.1"/>
</svg>
