<svg version="1.1" id="Layer_1" xmlns="http://www.w3.org/2000/svg" fill="#fff" xmlns:xlink="http://www.w3.org/1999/xlink" x="0px" y="0px"
	 viewBox="0 0 512.1 512" style="enable-background:new 0 0 512.1 512;" xml:space="preserve">
<path d="M498.6,395L395,325.9c-13.2-8.7-30.8-5.8-40.5,6.6l-30.2,38.8c-3.9,5.1-10.9,6.6-16.5,3.5l-5.7-3.2
	c-19-10.4-42.7-23.3-90.5-71c-47.7-47.7-60.7-71.5-71-90.5l-3.1-5.7c-3.2-5.6-1.7-12.7,3.4-16.6l38.8-30.2
	c12.4-9.7,15.3-27.3,6.6-40.5L117,13.4C108.1,0,90.2-4,76.5,4.3l-43.3,26c-13.6,8-23.6,21-27.9,36.2c-15.6,56.9-3.9,155,140.7,299.6
	C261,481.1,346.6,512,405.4,512c13.5,0.1,27-1.7,40.1-5.2c15.2-4.3,28.2-14.3,36.2-27.9l26.1-43.3C516.1,421.8,512,403.9,498.6,395
	 M493.1,426.8l-26,43.3c-5.7,9.8-15.1,17.1-26,20.2c-52.5,14.4-144.2,2.5-283-136.3C19.2,215.2,7.3,123.5,21.7,71
	c3.1-11,10.4-20.3,20.2-26.1l43.3-26c6-3.6,13.7-1.9,17.6,4l37.5,56.4l31.5,47.3c3.8,5.7,2.5,13.4-2.9,17.6l-38.8,30.2
	c-11.8,9-15.2,25.4-7.9,38.3l3.1,5.6c10.9,20,24.5,44.9,74,94.4s74.4,63.1,94.4,74l5.6,3.1c13,7.3,29.3,3.9,38.3-7.9l30.2-38.8
	c4.2-5.4,11.9-6.6,17.6-2.9l103.6,69.1C494.9,413.1,496.7,420.9,493.1,426.8"/>
<path d="M290.2,85.4c80.1,0.1,145,65,145.1,145.1c0,4.7,3.8,8.5,8.5,8.5c4.7,0,8.5-3.8,8.5-8.5c-0.1-89.5-72.6-162-162.1-162.1
	c-4.7,0-8.5,3.8-8.5,8.5C281.6,81.6,285.4,85.4,290.2,85.4"/>
<path d="M290.2,136.6c51.8,0.1,93.8,42.1,93.9,93.9c0,4.7,3.8,8.5,8.5,8.5c4.7,0,8.5-3.8,8.5-8.5c-0.1-61.2-49.7-110.9-110.9-110.9
	c-4.7,0-8.5,3.8-8.5,8.5C281.6,132.8,285.4,136.6,290.2,136.6"/>
<path d="M290.2,187.8c23.6,0,42.6,19.1,42.7,42.7c0,4.7,3.8,8.5,8.5,8.5s8.5-3.8,8.5-8.5c0-33-26.8-59.7-59.7-59.7
	c-4.7,0-8.5,3.8-8.5,8.5C281.6,184,285.4,187.8,290.2,187.8"/>
</svg>
