<?xml version="1.0" encoding="utf-8"?>
<!-- Generator: Adobe Illustrator 21.0.0, SVG Export Plug-In . SVG Version: 6.00 Build 0)  -->
<svg version="1.1" id="Layer_1" xmlns="http://www.w3.org/2000/svg" xmlns:xlink="http://www.w3.org/1999/xlink" x="0px" y="0px"
	 viewBox="0 0 480 480" style="enable-background:new 0 0 480 480;" xml:space="preserve">
<style type="text/css">
	.st0{fill:#279E64;}
</style>
<path class="st0" d="M456,288h-72V168h72c4.4,0,8-3.6,8-8v-39.4L479.9,9.1c0.6-4.4-2.4-8.4-6.8-9.1C472.8,0,472.4,0,472,0H248
	c-4.4,0-8,3.6-8,8c0,0.4,0,0.8,0.1,1.1L256,120.6V160c0,4.4,3.6,8,8,8h72v120h-8c-13.3,0-24,10.7-24,24s10.7,24,24,24h8v16h-56
	l7.5-112h8.5c4.4,0,8-3.6,8-8v-32c0-4.4-3.6-8-8-8h-56.6c-2.5-17.3-13-32.5-28.3-41c12.7-28.2,0.1-61.4-28.1-74
	c-28.2-12.7-61.4-0.1-74,28.1c-2.2,4.9-3.7,10.1-4.4,15.4c-43.9-4.7-83.3,27-88,70.8c0,0.2-0.1,0.5-0.1,0.7H8c-4.4,0-8,3.6-8,8v32
	c0,4.4,3.6,8,8,8h8.5L32,472.5c0.3,4.2,3.8,7.5,8,7.5h432c4.4,0,8-3.6,8-8V312C480,298.7,469.3,288,456,288 M257.2,16H288v48h16V16
	h16v16h16V16h48v24h16V16h16v48h16V16h30.8l-13.7,96H270.9L257.2,16z M272,128h176v24H272V128z M368,288h-16V168h16V288z M288,224
	H168v-16h120V224z M103.8,136.5c2.2,0.3,4.4,0.7,6.5,1.2h0.3c9.4,2.2,18.2,6.5,25.7,12.6l10.1-12.4c-7.7-6.2-16.5-10.9-25.9-13.9
	c2.3-21.9,21.9-37.8,43.8-35.5s37.8,21.9,35.5,43.8c-0.7,6.5-2.9,12.7-6.6,18.1c-2.5,3.7-1.5,8.6,2.2,11.1c0.6,0.4,1.2,0.7,1.8,0.9
	c13.2,4.7,23.1,15.9,25.9,29.7H160c-4.4,0-8,3.6-8,8v72c0,4.4-3.6,8-8,8s-8-3.6-8-8v-16c0-13.3-10.7-24-24-24s-24,10.7-24,24v56
	c0,4.4-3.6,8-8,8s-8-3.6-8-8V200c0-4.4-3.6-8-8-8H32.5C36.9,157,68.8,132.2,103.8,136.5 M16,208h40v16H16V208z M224,376v88H47.5
	L32.6,240H56v72c0,13.3,10.7,24,24,24s24-10.7,24-24v-56c0-4.4,3.6-8,8-8s8,3.6,8,8v16c0,13.3,10.7,24,24,24s24-10.7,24-24v-32
	h103.4L264,352h-16C234.7,352,224,362.7,224,376 M464,464h-24v-40h-16v40h-24v-40h-16v40h-24v-40h-16v40h-24v-40h-16v40h-24v-40h-16
	v40h-24v-64h224V464z M464,384H240v-8c0-4.4,3.6-8,8-8h176c13.3,0,24-10.7,24-24s-10.7-24-24-24h-96c-4.4,0-8-3.6-8-8s3.6-8,8-8h128
	c4.4,0,8,3.6,8,8V384z M352,336h16v16h-16V336z M384,352v-16h40c4.4,0,8,3.6,8,8c0,4.4-3.6,8-8,8H384z"/>
<polygon class="st0" points="32,80 32,64 16,64 16,80 0,80 0,96 16,96 16,112 32,112 32,96 48,96 48,80 "/>
<polygon class="st0" points="456,224 456,208 440,208 440,224 424,224 424,240 440,240 440,256 456,256 456,240 472,240 472,224 "/>
<polygon class="st0" points="152,16 152,0 136,0 136,16 120,16 120,32 136,32 136,48 152,48 152,32 168,32 168,16 "/>
<rect x="288" y="80" class="st0" width="16" height="16"/>
</svg>
