<?xml version="1.0" encoding="utf-8"?>
<!-- Generator: Adobe Illustrator 21.0.0, SVG Export Plug-In . SVG Version: 6.00 Build 0)  -->
<svg version="1.1" id="Layer_1" xmlns="http://www.w3.org/2000/svg" xmlns:xlink="http://www.w3.org/1999/xlink" x="0px" y="0px"
	 viewBox="0 0 496 496" style="enable-background:new 0 0 496 496;" xml:space="preserve">
<style type="text/css">
	.st0{fill:#279E64;}
</style>
<path class="st0" d="M464,432h-16v-64h16v-48h-36l-24-32h-12V73l6.9-27.6c0.7-2.9,1.1-5.9,1.1-8.8C400,16.4,383.6,0,363.5,0h-7
	C336.4,0,320,16.4,320,36.5c0,3,0.4,6,1.1,8.8L328,73v87H142.5c-3.3-9.3-12.1-16-22.5-16H24c-13.2,0-24,10.8-24,24v32
	c0,10.4,6.7,19.2,16,22.5v103.3c-9.9,11.3-16,26-16,42.2c0,35.3,28.7,64,64,64c23.6,0,44.3-12.9,55.3-32H272v16H152
	c-13.2,0-24,10.8-24,24s10.8,24,24,24h72c4.4,0,8,3.6,8,8c0,13.2,10.8,24,24,24h208c17.6,0,32-14.4,32-32S481.6,432,464,432
	 M288,368h16v64h-16V368z M320,368h16v64h-16V368z M352,368h16v64h-16V368z M384,368h16v64h-16V368z M416,368h16v64h-16V368z
	 M448,352H272v-16h176V352z M408,320h-96l12-16h72L408,320z M344,288V80h32.2L376,288H344z M356.5,16h7c11.3,0,20.5,9.2,20.5,20.5
	c0,1.7-0.2,3.3-0.6,5L377.8,64h-35.7l-5.4-22.5c-0.4-1.6-0.6-3.3-0.6-5C336,25.2,345.2,16,356.5,16 M328,208H142.5
	c0.9-2.5,1.5-5.2,1.5-8v-24h184V208z M16,168c0-4.4,3.6-8,8-8h96c4.4,0,8,3.6,8,8v32c0,4.4-3.6,8-8,8h-8H24c-4.4,0-8-3.6-8-8V168z
	 M64,416c-26.5,0-48-21.5-48-48s21.5-48,48-48s48,21.5,48,48S90.5,416,64,416 M64,304c-11.7,0-22.6,3.2-32,8.7v-17.9
	c10.1-4.4,20.8-6.8,32-6.8c44.1,0,80,35.9,80,80c0,5.4-0.7,10.7-1.8,16h-16.3c1.3-5.1,2.1-10.5,2.1-16C128,332.7,99.3,304,64,304
	 M158.6,384c0.9-5.3,1.4-10.6,1.4-16c0-52.9-43.1-96-96-96c-10.9,0-21.8,1.9-32,5.6V224h80h8h208v64h-12l-24,32h-36v48h16v16H158.6z
	 M464,480H256c-4.4,0-8-3.6-8-8c0-13.2-10.8-24-24-24h-72c-4.4,0-8-3.6-8-8s3.6-8,8-8h120v16h168h8h16c8.8,0,16,7.2,16,16
	S472.8,480,464,480"/>
<path class="st0" d="M64,336c-17.6,0-32,14.4-32,32s14.4,32,32,32s32-14.4,32-32S81.6,336,64,336 M64,384c-8.8,0-16-7.2-16-16
	c0-8.8,7.2-16,16-16s16,7.2,16,16C80,376.8,72.8,384,64,384"/>
<rect x="112" y="240" class="st0" width="16" height="16"/>
<rect x="48" y="240" class="st0" width="16" height="16"/>
<rect x="80" y="240" class="st0" width="16" height="16"/>
<path class="st0" d="M360,32c4.4,0,8,3.6,8,8c0,4.4-3.6,8-8,8c-4.4,0-8-3.6-8-8C352,35.6,355.6,32,360,32"/>
<path class="st0" d="M192,144c17.6,0,32-14.4,32-32c0-17.6-14.4-32-32-32s-32,14.4-32,32C160,129.6,174.4,144,192,144 M192,96
	c8.8,0,16,7.2,16,16c0,8.8-7.2,16-16,16c-8.8,0-16-7.2-16-16C176,103.2,183.2,96,192,96"/>
<path class="st0" d="M104,96c17.6,0,32-14.4,32-32c0-17.6-14.4-32-32-32S72,46.4,72,64C72,81.6,86.4,96,104,96 M104,48
	c8.8,0,16,7.2,16,16c0,8.8-7.2,16-16,16s-16-7.2-16-16C88,55.2,95.2,48,104,48"/>
<path class="st0" d="M256,64c17.6,0,32-14.4,32-32c0-17.6-14.4-32-32-32c-17.6,0-32,14.4-32,32C224,49.6,238.4,64,256,64 M256,16
	c8.8,0,16,7.2,16,16c0,8.8-7.2,16-16,16c-8.8,0-16-7.2-16-16C240,23.2,247.2,16,256,16"/>
</svg>
