<?xml version="1.0" encoding="utf-8"?>
<!-- Generator: Adobe Illustrator 21.0.0, SVG Export Plug-In . SVG Version: 6.00 Build 0)  -->
<svg version="1.1" id="Layer_1" xmlns="http://www.w3.org/2000/svg" xmlns:xlink="http://www.w3.org/1999/xlink" x="0px" y="0px"
	 viewBox="0 0 496 496" style="enable-background:new 0 0 496 496;" xml:space="preserve">
<style type="text/css">
	.st0{fill:#279E64;}
</style>
<rect y="480" width="16" height="16"/>
<rect x="480" y="480" width="16" height="16"/>
<path class="st0" d="M472.3,136L248,47.4L23.7,136C9.3,141.7,0,155.3,0,170.6c0,12.3,6.1,23.8,16.4,30.8c9.3,6.4,20.9,8.1,31.6,5.1
	V384H32v48h16v48H32v16h144h144h144v-16h-16v-48h16v-48h-16V206.4c3.4,1,6.8,1.6,10.3,1.6c7.5,0,15-2.2,21.3-6.6
	c10.2-7,16.4-18.5,16.4-30.8C496,155.3,486.7,141.7,472.3,136 M48,400h96v16H48V400z M64,432h64v48H64V432z M192,480V376
	c0-30.9,25.1-56,56-56c30.9,0,56,25.1,56,56v104H192z M432,480h-64v-48h64V480z M448,416h-96v-16h96V416z M336,384v48h16v48h-32V376
	c0-39.7-32.3-72-72-72c-39.7,0-72,32.3-72,72v104h-32v-48h16v-48H64V200.4l184-72.7l184,72.7V384H336z M470.6,188.2
	c-6.1,4.2-13.6,5-20.5,2.3L248,110.6L45.8,190.4c-6.9,2.7-14.4,1.9-20.5-2.3c-5.9-4-9.4-10.4-9.4-17.5c0-8.8,5.3-16.5,13.6-19.8
	L248,64.6l218.4,86.2c8.3,3.3,13.6,11,13.6,19.8C480,177.7,476.6,184.1,470.6,188.2"/>
<rect x="208" y="400" class="st0" width="16" height="16"/>
<path class="st0" d="M248,160c-35.3,0-64,28.7-64,64s28.7,64,64,64s64-28.7,64-64S283.3,160,248,160 M295.3,216H256v-39.3
	C276.1,180.1,291.9,195.9,295.3,216 M240,176.7V216h-39.3C204.1,195.9,219.9,180.1,240,176.7 M200.7,232H240v39.3
	C219.9,267.9,204.1,252.1,200.7,232 M256,271.3V232h39.3C291.9,252.1,276.1,267.9,256,271.3"/>
<path class="st0" d="M384,200h-16c0,17.6-14.4,32-32,32v16c17.6,0,32,14.4,32,32h16c0-17.6,14.4-32,32-32v-16
	C398.4,232,384,217.6,384,200 M376,253.5c-3.6-5.3-8.2-9.9-13.5-13.5c5.3-3.6,9.9-8.2,13.5-13.5c3.6,5.3,8.2,9.9,13.5,13.5
	C384.2,243.6,379.6,248.2,376,253.5"/>
<path class="st0" d="M464,32h-16c0,17.6-14.4,32-32,32v16c17.6,0,32,14.4,32,32h16c0-17.6,14.4-32,32-32V64
	C478.4,64,464,49.6,464,32 M456,85.5c-3.6-5.3-8.2-9.9-13.5-13.5c5.3-3.6,9.9-8.2,13.5-13.5c3.6,5.3,8.2,9.9,13.5,13.5
	C464.2,75.6,459.6,80.2,456,85.5"/>
<path class="st0" d="M128,280h-16c0,17.6-14.4,32-32,32v16c17.6,0,32,14.4,32,32h16c0-17.6,14.4-32,32-32v-16
	C142.4,312,128,297.6,128,280 M120,333.5c-3.6-5.3-8.2-9.9-13.5-13.5c5.3-3.6,9.9-8.2,13.5-13.5c3.6,5.3,8.2,9.9,13.5,13.5
	C128.2,323.6,123.6,328.2,120,333.5"/>
<path class="st0" d="M80,80h16c0-17.6,14.4-32,32-32V32c-17.6,0-32-14.4-32-32H80c0,17.6-14.4,32-32,32v16C65.6,48,80,62.4,80,80
	 M88,26.5c3.6,5.3,8.2,9.9,13.5,13.5c-5.3,3.6-9.9,8.2-13.5,13.5c-3.6-5.3-8.2-9.9-13.5-13.5C79.8,36.4,84.4,31.8,88,26.5"/>
</svg>
