<?xml version="1.0" encoding="utf-8"?>
<!-- Generator: Adobe Illustrator 23.0.1, SVG Export Plug-In . SVG Version: 6.00 Build 0)  -->
<svg version="1.1" id="Capa_1" xmlns="http://www.w3.org/2000/svg" xmlns:xlink="http://www.w3.org/1999/xlink" x="0px" y="0px"
	 viewBox="0 0 100 100" style="enable-background:new 0 0 100 100;" xml:space="preserve">
<style type="text/css">
	.st0{fill:#279E64;}
</style>
<g>
	<g>
		<path class="st0" d="M96.8,2h-76c-1.5,0-2.7,1.2-2.7,2.7v41.5l-2.6-2.6c-0.5-0.5-1.1-0.7-1.7-0.7c-0.6,0-1.3,0.3-1.7,0.7l-4.5,4.5
			c-0.5,0.5-0.7,1.1-0.7,1.7s0.3,1.3,0.7,1.7L18.2,62v4.2c-0.4,0.4-0.6,1-0.6,1.6s0.2,1.1,0.6,1.6v4.5L1.2,90.8
			c-0.5,0.5-0.7,1.1-0.7,1.7c0,0.6,0.3,1.3,0.7,1.7l3,3C4.7,97.8,5.3,98,6,98s1.2-0.2,1.7-0.7l1.8-1.8c0.6-0.6,0.6-1.5,0-2.1
			c-0.6-0.6-1.5-0.6-2.1,0L6,94.9l-2.3-2.3l21.1-21.1l2.3,2.3L12.5,88.4c-0.6,0.6-0.6,1.5,0,2.1c0.6,0.6,1.5,0.6,2.1,0l3.6-3.6v5.7
			c0,1.5,1.2,2.7,2.7,2.7h52.8c0.8,0,1.5-0.7,1.5-1.5c0-0.8-0.7-1.5-1.5-1.5H44.4l2-2l0.6,0.6c0.5,0.5,1.1,0.7,1.7,0.7
			s1.3-0.3,1.7-0.7l4.5-4.5c0.9-0.9,0.9-2.5,0-3.4l-0.6-0.6l42.2-42.2v52.2H82.8c-0.8,0-1.5,0.7-1.5,1.5c0,0.8,0.7,1.5,1.5,1.5h14
			c1.5,0,2.7-1.2,2.7-2.7V4.7C99.5,3.2,98.3,2,96.8,2z M26.4,69.1c-0.5-0.5-1.1-0.7-1.7-0.7c-0.6,0-1.3,0.3-1.7,0.7l-0.5,0.5
			l-1.8-1.8l4.2-4.2l10,10l-4.2,4.2L28.9,76l0.5-0.5c0.9-0.9,0.9-2.5,0-3.4L26.4,69.1z M40.3,92.3H21.1v-8.4l5.8-5.8l2.1,2.1
			c0.5,0.5,1.1,0.7,1.7,0.7s1.3-0.3,1.7-0.7l2-2l10,10L40.3,92.3z M48.7,88.5L36.5,76.2l0.9-0.9c0.5-0.5,0.7-1.1,0.7-1.7
			c0-0.6-0.3-1.3-0.7-1.7L26.6,61.2c-0.5-0.5-1.1-0.7-1.7-0.7c-0.6,0-1.3,0.3-1.7,0.7l-0.9,0.9L10,49.8l3.8-3.8l38.7,38.7L48.7,88.5
			z M52.3,80.3l-4.2-4.2l12.8-12.8c0.6-0.6,0.6-1.5,0-2.1c-0.6-0.6-1.5-0.6-2.1,0L46,74l-19-19l6.9-6.9c0.6-0.6,0.6-1.5,0-2.1
			c-0.6-0.6-1.5-0.6-2.1,0L25,53l-2.1-2.1l23.4-23.4c0.6-0.6,0.6-1.5,0-2.1c-0.6-0.6-1.5-0.6-2.1,0L21.1,48.6V4.9h43.7L50,19.7
			c-0.6,0.6-0.6,1.5,0,2.1c0.6,0.6,1.5,0.6,2.1,0L68.9,4.9h27.7v31.2h0L52.3,80.3z"/>
	</g>
</g>
<g>
	<g>
		<path class="st0" d="M13.8,33.2c-2.7-0.8-3-1.1-3.8-3.8c-0.3-0.9-1.1-1.5-2-1.5c-0.9,0-1.7,0.6-2,1.5c-0.8,2.7-1.1,3-3.8,3.8
			c-0.9,0.3-1.5,1.1-1.5,2c0,0.9,0.6,1.7,1.5,2c2.7,0.8,3,1.1,3.8,3.8c0.3,0.9,1.1,1.5,2,1.5c0.9,0,1.7-0.6,2-1.5
			c0.8-2.7,1.1-3,3.8-3.8c0.9-0.3,1.5-1.1,1.5-2C15.2,34.2,14.7,33.4,13.8,33.2z M8,37.9c-0.6-1.3-1.4-2.1-2.8-2.8
			c1.3-0.6,2.1-1.4,2.8-2.8c0.6,1.3,1.4,2.1,2.8,2.8C9.5,35.8,8.7,36.6,8,37.9z"/>
	</g>
</g>
<g>
	<g>
		<path class="st0" d="M73.4,17.3c-3.6-1.1-4-1.6-5.1-5.1c-0.3-0.9-1.2-1.6-2.1-1.6s-1.9,0.6-2.1,1.6c-1.1,3.6-1.6,4-5.1,5.1
			c-0.9,0.3-1.6,1.2-1.6,2.1c0,1,0.6,1.9,1.6,2.1c3.6,1.1,4,1.6,5.1,5.1c0.3,0.9,1.2,1.6,2.1,1.6c1,0,1.9-0.6,2.1-1.6
			c1.1-3.6,1.6-4,5.1-5.1c0.9-0.3,1.6-1.2,1.6-2.1C75,18.5,74.4,17.6,73.4,17.3z M66.1,24.1c-1-2.5-2.1-3.6-4.6-4.6
			c2.5-1,3.6-2.1,4.6-4.6c1,2.5,2.1,3.6,4.6,4.6C68.3,20.5,67.1,21.6,66.1,24.1z"/>
	</g>
</g>
<g>
	<g>
		<path class="st0" d="M72.7,48.4c-2-0.6-2.2-0.8-2.8-2.8c-0.3-0.8-1-1.4-1.9-1.4c-0.9,0-1.6,0.6-1.9,1.4c-0.6,2-0.8,2.2-2.8,2.8
			c-0.8,0.3-1.4,1-1.4,1.9c0,0.9,0.6,1.6,1.4,1.9c2,0.6,2.2,0.8,2.8,2.8c0.3,0.8,1,1.4,1.9,1.4c0.9,0,1.6-0.6,1.9-1.4
			c0.6-2,0.8-2.2,2.8-2.8c0.8-0.3,1.4-1,1.4-1.9C74.1,49.4,73.5,48.6,72.7,48.4z M68,51.9c-0.4-0.7-0.9-1.2-1.6-1.6
			c0.7-0.4,1.2-0.9,1.6-1.6c0.4,0.7,0.9,1.2,1.6,1.6C68.9,50.7,68.4,51.2,68,51.9z"/>
	</g>
</g>
<g>
	<g>
		<path class="st0" d="M69.3,32c-0.6-0.6-1.5-0.6-2.1,0L46.1,53.1c-0.6,0.6-0.6,1.5,0,2.1c0.3,0.3,0.7,0.4,1,0.4
			c0.4,0,0.7-0.1,1-0.4L69.3,34C69.9,33.4,69.9,32.5,69.3,32z"/>
	</g>
</g>
</svg>
