<?xml version="1.0" encoding="utf-8"?>
<!-- Generator: Adobe Illustrator 21.0.0, SVG Export Plug-In . SVG Version: 6.00 Build 0)  -->
<svg version="1.1" id="Layer_1" xmlns="http://www.w3.org/2000/svg" xmlns:xlink="http://www.w3.org/1999/xlink" x="0px" y="0px"
	 viewBox="0 0 448 480" style="enable-background:new 0 0 448 480;" xml:space="preserve">
<style type="text/css">
	.st0{fill:#279E64;}
</style>
<path class="st0" d="M400,336h-12.5c-8.8,0-17.5,2.1-25.3,6c-11.4,5.7-24.9,5.7-36.3,0c-4.6-2.2-9.4-3.9-14.4-4.8L327,216h17
	c4.4,0,8-3.6,8-8v-32c0-4.4-3.6-8-8-8h-32v-24c0-2.1-0.8-4.2-2.3-5.7L272,100.7V75.8l12.1-9.7l20.7,41.4l14.3-7.2l-22.3-44.5
	l9.9-7.9H336c4.4,0,8-3.6,8-8V8c0-4.4-3.6-8-8-8h-80c-39.7,0-72,32.3-72,72c0,4.4,3.6,8,8,8h16v20.7l-21.7,21.7
	c-1.5,1.5-2.3,3.5-2.3,5.7v40h-16v-64c0-1-0.2-2-0.6-2.9c-0.1-0.3-0.3-0.6-0.5-0.9c-0.2-0.4-0.4-0.8-0.7-1.2L136,61.2V8
	c0-4.4-3.6-8-8-8H80c-4.4,0-8,3.6-8,8v53.2L41.8,99c-0.3,0.4-0.5,0.8-0.7,1.2c-0.2,0.3-0.3,0.6-0.5,0.9C40.2,102,40,103,40,104v64H8
	c-4.4,0-8,3.6-8,8v32c0,4.4,3.6,8,8,8h17l31.1,241c0.5,4,3.9,7,7.9,7h188.3c9.1,10.2,22.1,16,35.7,16h12.5c8.8,0,17.5-2.1,25.3-6
	c11.4-5.7,24.9-5.7,36.3,0c7.9,3.9,16.5,6,25.3,6H400c26.5,0,48-21.5,48-48v-48C448,357.5,426.5,336,400,336 M312,16h16v16h-16V16z
	 M336,200H224v-16h112V200z M200.6,64c4-27.5,27.6-48,55.4-48h40v20.2L261.2,64H200.6z M256,96h-32V80h32V96z M200,131.3l19.3-19.3
	h41.4l35.3,35.3V168h-96V131.3z M192,184h16v56c0,3,1.7,5.8,4.4,7.2l48,24c2.3,1.2,4.1,3.2,4.9,5.7c0.8,2.7,0.5,5.6-0.8,8
	c-2.3,4.6-7.9,6.5-12.5,4.2c0,0,0,0,0,0l-32.5-16.2c-4-1.9-8.8-0.3-10.7,3.7c-0.5,1.1-0.8,2.3-0.8,3.5v80c0,8.8-7.2,16-16,16v-72
	h-16v72h-16v-72h-16v72h-16v-72h-16v72c-8.8,0-16-7.2-16-16V184H192z M88,16h32v40H88V16z M83.8,72h40.3l19.2,24H64.6L83.8,72z
	 M56,112h96v56H56V112z M16,184h64v16H16V184z M240,384v48c0,5.5,1,10.9,2.8,16H71L41.1,216H80v144c0,17.7,14.3,32,32,32h80
	c17.7,0,32-14.3,32-32v-67.1l20.9,10.4c12.6,6.2,27.9,1,34.1-11.6c0-0.1,0.1-0.1,0.1-0.2c3.1-6.1,3.6-13.3,1.5-19.8
	c-2.1-6.5-6.8-11.9-13-15L224,235.1V216h86.9l-15.5,120H288C261.5,336,240,357.5,240,384 M432,432c0,17.7-14.3,32-32,32h-12.5
	c-6.3,0-12.5-1.5-18.2-4.3c-15.9-7.9-34.7-7.9-50.6,0c-5.6,2.8-11.9,4.3-18.2,4.3H288c-17.7,0-32-14.3-32-32v-12.3
	c8.8,7.9,20.2,12.3,32,12.3h12.5c8.8,0,17.5-2.1,25.3-6c11.4-5.7,24.9-5.7,36.3,0c7.9,3.9,16.5,6,25.3,6H400
	c11.8,0,23.2-4.4,32-12.3V432z M400,416h-12.5c-6.3,0-12.5-1.5-18.2-4.3c-15.9-7.9-34.7-7.9-50.6,0c-5.6,2.8-11.9,4.3-18.2,4.3H288
	c-17.7,0-32-14.3-32-32s14.3-32,32-32h12.5c6.3,0,12.5,1.5,18.2,4.3c16,7.9,34.7,7.9,50.6,0c5.6-2.8,11.9-4.3,18.2-4.3H400
	c17.7,0,32,14.3,32,32S417.7,416,400,416"/>
<rect x="392" y="368" class="st0" width="16" height="16"/>
<rect x="312" y="368" class="st0" width="16" height="16"/>
<rect x="280" y="376" class="st0" width="16" height="16"/>
<rect x="360" y="376" class="st0" width="16" height="16"/>
</svg>
