<svg version="1.1" id="Layer_1" xmlns="http://www.w3.org/2000/svg" xmlns:xlink="http://www.w3.org/1999/xlink" x="0px" y="0px"
	 viewBox="0 0 58 57.9" style="enable-background:new 0 0 58 57.9;" xml:space="preserve">
<style type="text/css">
	.st0{clip-path:url(#SVGID_2_);fill:#FFF;}
</style>
<g>
	<defs>
		<rect id="SVGID_1_" y="0" width="58" height="57.9"/>
	</defs>
	<clipPath id="SVGID_2_">
		<use xlink:href="#SVGID_1_"  style="overflow:visible;"/>
	</clipPath>
	<path class="st0" d="M29,0C13,0,0,12.9,0,28.9c0,16,13,28.9,29,28.9s29-12.9,29-28.9C58,12.9,45,0,29,0 M31.6,29.8
		c0,0.5-0.2,1-0.6,1.4l-7.4,7.4c-0.4,0.4-0.9,0.6-1.4,0.6c-0.5,0-1-0.2-1.4-0.6c-0.8-0.7-0.8-2,0-2.8l6.8-6.8V14.9c0-1.1,0.9-2,2-2
		s2,0.9,2,2V29.8z"/>
</g>
</svg>
