<?xml version="1.0" encoding="utf-8"?>
<!-- Generator: Adobe Illustrator 21.0.0, SVG Export Plug-In . SVG Version: 6.00 Build 0)  -->
<svg version="1.1" id="Layer_1" xmlns="http://www.w3.org/2000/svg" xmlns:xlink="http://www.w3.org/1999/xlink" x="0px" y="0px"
	 viewBox="0 0 39.4 49.7" style="enable-background:new 0 0 39.4 49.7;" xml:space="preserve">
<path d="M26.8,0.4C26.5,0.1,26.2,0,25.9,0H6.5C3,0,0,2.9,0,6.5v36.7c0,3.6,3,6.5,6.5,6.5h26.3c3.6,0,6.5-2.9,6.5-6.5V14.1
	c0-0.3-0.1-0.6-0.3-0.8L26.8,0.4z M27.1,4.2l8.2,8.6H30c-1.6,0-2.9-1.3-2.9-2.9V4.2z M32.8,47.3H6.5c-2.2,0-4.1-1.9-4.1-4.1V6.5
	c0-2.2,1.9-4.1,4.1-4.1h18.2V10c0,2.9,2.4,5.3,5.3,5.3h7v27.9C37,45.4,35.1,47.3,32.8,47.3"/>
<path d="M29.6,39H9.8c-0.7,0-1.2,0.5-1.2,1.2s0.5,1.2,1.2,1.2h19.8c0.7,0,1.2-0.5,1.2-1.2S30.2,39,29.6,39"/>
<path d="M13.5,26.1l4.9-5.3v13.1c0,0.7,0.5,1.2,1.2,1.2c0.7,0,1.2-0.5,1.2-1.2V20.8l4.9,5.3c0.2,0.3,0.6,0.4,0.9,0.4
	c0.3,0,0.6-0.1,0.8-0.3c0.5-0.5,0.5-1.2,0.1-1.7l-7-7.5c-0.2-0.2-0.5-0.4-0.9-0.4c-0.3,0-0.6,0.1-0.9,0.4l-7,7.5
	c-0.5,0.5-0.4,1.2,0.1,1.7C12.3,26.6,13.1,26.6,13.5,26.1"/>
</svg>
