<?xml version="1.0" encoding="utf-8"?>
<!-- Generator: Adobe Illustrator 21.0.0, SVG Export Plug-In . SVG Version: 6.00 Build 0)  -->
<svg version="1.1" id="Layer_1" xmlns="http://www.w3.org/2000/svg" xmlns:xlink="http://www.w3.org/1999/xlink" x="0px" y="0px"
	 viewBox="0 0 122 112.8" style="enable-background:new 0 0 122 112.8;" xml:space="preserve">
<path d="M99.2,29.5c-1.3-7.8-5.1-14.8-11-20.2c-6.5-6-15-9.3-23.8-9.3c-6.8,0-13.5,2-19.2,5.6c-4.7,3.1-8.7,7.2-11.5,12.1
	c-1.2-0.2-2.5-0.4-3.7-0.4c-10.7,0-19.3,8.7-19.3,19.3c0,1.4,0.2,2.7,0.4,4C4.2,45.7,0,53.8,0,62.4c0,6.9,2.6,13.7,7.3,19
	c4.8,5.5,11.2,8.7,18.1,9.1h0.2h21.6c1.9,0,3.4-1.5,3.4-3.4c0-1.9-1.5-3.4-3.4-3.4H25.7C15.4,83.1,6.8,73.4,6.8,62.4
	c0-7.1,3.8-13.7,10-17.3c1.4-0.8,2-2.6,1.5-4.1c-0.5-1.4-0.8-2.8-0.8-4.3c0-6.9,5.6-12.6,12.6-12.6c1.5,0,2.9,0.3,4.3,0.8
	c1.7,0.6,3.5-0.2,4.2-1.7c4.7-10,14.8-16.4,25.8-16.4c14.8,0,27,11.1,28.4,25.8c0.2,1.5,1.3,2.8,2.8,3c11.2,1.9,19.6,12.2,19.6,24
	c0,12.5-9.8,23.3-21.9,24.2H74.8c-1.9,0-3.4,1.5-3.4,3.4c0,1.9,1.5,3.4,3.4,3.4h18.6h0.3c7.7-0.6,14.8-4.1,20.1-9.9
	c5.3-5.8,8.2-13.3,8.2-21.1C122,45.4,112.4,32.9,99.2,29.5"/>
<path d="M81.3,65.6c1.3-1.3,1.3-3.5,0-4.8L63.4,42.9c-0.6-0.6-1.5-1-2.4-1c-0.9,0-1.8,0.4-2.4,1L40.7,60.8c-1.3,1.3-1.3,3.5,0,4.8
	c0.7,0.7,1.5,1,2.4,1s1.7-0.3,2.4-1l12.2-12.2v55.9c0,1.9,1.5,3.4,3.4,3.4s3.4-1.5,3.4-3.4V53.5l12.2,12.2C77.9,67,80,67,81.3,65.6"
	/>
</svg>
