<?xml version="1.0" encoding="utf-8"?>
<!-- Generator: Adobe Illustrator 16.0.0, SVG Export Plug-In . SVG Version: 6.00 Build 0)  -->
<!DOCTYPE svg PUBLIC "-//W3C//DTD SVG 1.1//EN" "http://www.w3.org/Graphics/SVG/1.1/DTD/svg11.dtd">
<svg version="1.1" id="Layer_1" xmlns="http://www.w3.org/2000/svg" xmlns:xlink="http://www.w3.org/1999/xlink" x="0px" y="0px"
	 width="56.002px" height="51.616px" viewBox="0 0 56.002 51.616" enable-background="new 0 0 56.002 51.616" xml:space="preserve">
<path fill="#279E64" d="M54.831,25.696H51.78v-8.93c-0.002-0.639-0.52-1.157-1.16-1.159H45.9V8.011
	c-0.002-2.241-1.817-4.057-4.058-4.059H26.592l-2.91-2.923c-0.713-0.719-1.703-1.092-2.712-1.02c-1.01,0.071-1.939,0.58-2.542,1.391
	l-1.89,2.552H6.958C3.117,3.955,0.003,7.068,0,10.91v33.747c0.004,3.843,3.117,6.955,6.959,6.959H50.69
	c0.64-0.003,1.158-0.52,1.16-1.159v-9.277h2.991c0.641-0.003,1.158-0.521,1.16-1.161V26.856
	C55.994,26.214,55.473,25.697,54.831,25.696 M41.843,6.271c0.461-0.001,0.902,0.183,1.229,0.509c0.327,0.326,0.51,0.77,0.51,1.231
	v7.596h-5.383l-9.288-9.336H41.843z M20.283,2.792c0.201-0.27,0.511-0.439,0.847-0.464c0.336-0.024,0.666,0.099,0.904,0.337
	l12.885,12.942H10.773L20.283,2.792z M2.318,10.91c-0.001-2.562,2.078-4.64,4.64-4.639h7.862l-6.934,9.336H6.958
	c-2.562,0-4.641-2.077-4.64-4.638V10.91z M49.52,49.296H6.958c-2.562,0.001-4.641-2.076-4.64-4.64V16.152
	c1.275,1.145,2.927,1.777,4.64,1.775h42.515v7.769h-6.565c-3.201,0.001-5.797,2.597-5.799,5.799v3.896
	c0.002,3.202,2.598,5.797,5.799,5.798h6.622v8.107H49.52z M53.671,38.871H42.897c-1.919-0.006-3.474-1.561-3.479-3.479v-3.896
	c0.006-1.921,1.561-3.475,3.479-3.479h7.364c0.232,0.077,0.485,0.077,0.719,0h2.69V38.871z"/>
<path fill="#279E64" d="M44.057,30.334c-0.641,0.003-1.157,0.521-1.159,1.16v3.897c0,0.64,0.519,1.159,1.159,1.159
	s1.159-0.52,1.159-1.159v-3.897c0.002-0.308-0.119-0.603-0.339-0.82C44.66,30.456,44.365,30.333,44.057,30.334"/>
</svg>
