<?xml version="1.0" encoding="utf-8"?>
<!-- Generator: Adobe Illustrator 21.0.0, SVG Export Plug-In . SVG Version: 6.00 Build 0)  -->
<svg version="1.1" id="Layer_1" xmlns="http://www.w3.org/2000/svg" xmlns:xlink="http://www.w3.org/1999/xlink" x="0px" y="0px"
	 viewBox="0 0 35.8 35.6" style="enable-background:new 0 0 35.8 35.6;" xml:space="preserve">
<style type="text/css">
	.st0{clip-path:url(#SVGID_2_);fill:#7D7D7D;}
</style>
<g>
	<defs>
		<rect id="SVGID_1_" y="0" width="35.8" height="35.6"/>
	</defs>
	<clipPath id="SVGID_2_">
		<use xlink:href="#SVGID_1_"  style="overflow:visible;"/>
	</clipPath>
	<path class="st0" d="M33.1,22.4c-0.5,0-0.9,0.4-0.9,0.9v7.9c0,1.5-1.2,2.7-2.7,2.7h-25c-1.5,0-2.7-1.2-2.7-2.7V7.9
		c0-1.5,1.2-2.7,2.7-2.7h7.9c0.5,0,0.9-0.4,0.9-0.9s-0.4-0.9-0.9-0.9H4.5C2,3.5,0,5.5,0,7.9v23.3c0,2.5,2,4.5,4.5,4.5h25
		c2.5,0,4.5-2,4.5-4.5v-7.9C34,22.8,33.6,22.4,33.1,22.4"/>
	<path class="st0" d="M33.6,1.2c-1.6-1.6-4.1-1.6-5.7,0L12,17.1c-0.1,0.1-0.2,0.2-0.2,0.4L9.7,25c-0.1,0.3,0,0.6,0.2,0.9
		c0.2,0.2,0.6,0.3,0.9,0.2l7.6-2.1c0.1,0,0.3-0.1,0.4-0.2L34.6,7.9c1.6-1.6,1.6-4.1,0-5.7L33.6,1.2z M14,17.7l13-13l4.2,4.2l-13,13
		L14,17.7z M13.1,19.4l3.4,3.4L11.8,24L13.1,19.4z M33.4,6.6l-0.9,0.9l-4.2-4.2l0.9-0.9c0.9-0.9,2.3-0.9,3.2,0l1,1
		C34.3,4.4,34.3,5.8,33.4,6.6"/>
</g>
</svg>
