<svg xmlns="http://www.w3.org/2000/svg" width="1468.411" height="1051.326" viewBox="0 0 1468.411 1051.326">
  <g id="Group_17061" data-name="Group 17061" transform="translate(0 0)">
    <path id="Path_46619" data-name="Path 46619" d="M1385.429,364.922H581.895a42.7,42.7,0,0,0-42.659,42.659V537.8a42.7,42.7,0,0,0,42.659,42.659h803.534a42.7,42.7,0,0,0,42.659-42.659V407.583A42.7,42.7,0,0,0,1385.429,364.922Z" transform="translate(39.568 -56.841)" fill="#f2f2f2"/>
    <path id="Path_46620" data-name="Path 46620" d="M635.153,658.657H315.472a2.557,2.557,0,0,1,0-5.115H635.153a2.557,2.557,0,0,1,0,5.115Z" transform="translate(-312.915 392.669)" fill="#3f3d56"/>
    <path id="Path_46621" data-name="Path 46621" d="M437.708,344.754a23.981,23.981,0,0,0-4.916,36.442l-23.241,49.629L436.266,452.3,468.1,381.758a24.111,24.111,0,0,0-30.394-37Z" transform="translate(-162.409 -94.181)" fill="#ffb8b8"/>
    <path id="Path_46622" data-name="Path 46622" d="M378.2,353.217h0a33.4,33.4,0,0,1,44.967,10.08L470.727,434.5l16.51-36.4a10.23,10.23,0,0,1,12.366-5.539l24.918,7.784A10.23,10.23,0,0,1,531.16,413.4L514.1,463.764a43.526,43.526,0,0,1-65.876,21.911h0a43.528,43.528,0,0,1-7.129-6.131l-70.081-74.88a33.4,33.4,0,0,1,7.186-51.448Z" transform="translate(-236.46 -82.503)" fill="#ccc"/>
    <path id="Path_46623" data-name="Path 46623" d="M458.679,321.544a4.814,4.814,0,0,1,4.693,4.932L462.962,343l.829.076-.3,11.226-.81-.1-1.471,59.211a8.349,8.349,0,0,1-7.472,8.1l-37.65,3.964a6.32,6.32,0,0,1-6.967-6.712l5.71-84.312a7.819,7.819,0,0,1,6.6-7.2l36.346-5.646h0a4.805,4.805,0,0,1,.9-.062Z" transform="translate(-163.097 -124.403)" fill="#3f3d56"/>
    <path id="Path_46624" data-name="Path 46624" d="M427.414,329l19.108-2.968a1.582,1.582,0,0,0,1.33-1.392h0a1.793,1.793,0,0,1,1.507-1.577l4.025-.625a3.8,3.8,0,0,1,4.38,3.845l-2.069,85.846a4.336,4.336,0,0,1-3.951,4.215l-37.623,3.345a3.348,3.348,0,0,1-3.639-3.538l5.076-83.534a5.4,5.4,0,0,1,4.564-5.012l4.243-.659A2.7,2.7,0,0,0,427.414,329Z" transform="translate(-160.968 -123.082)" fill="#fff"/>
    <path id="Path_46625" data-name="Path 46625" d="M69.528,467.625l29.237,0,13.9-112.773-43.152.005Z" transform="translate(108.27 552.658)" fill="#ffb8b8"/>
    <path id="Path_46626" data-name="Path 46626" d="M0,0H91.888V35.5H35.5A35.5,35.5,0,0,1,0,0H0Z" transform="translate(263.423 1047.426) rotate(179.995)" fill="#2f2e41"/>
    <path id="Path_46627" data-name="Path 46627" d="M34.392,467.625l29.237,0,13.9-112.773-43.152.005Z" transform="translate(53.548 552.658)" fill="#ffb8b8"/>
    <path id="Path_46628" data-name="Path 46628" d="M0,0H91.888V35.5H35.5A35.5,35.5,0,0,1,0,0H0Z" transform="translate(173.566 1047.426) rotate(179.995)" fill="#2f2e41"/>
    <circle id="Ellipse_2971" data-name="Ellipse 2971" cx="62.813" cy="62.813" r="62.813" transform="translate(110.752 106.759)" fill="#ffb8b8"/>
    <path id="Path_46629" data-name="Path 46629" d="M469.773,430.262a96.822,96.822,0,0,0-46.749-79.823c-16.228-9.562-33.991-13.292-48.122.84a98.09,98.09,0,0,0-20.04,30.078,129.164,129.164,0,0,0-2.389,95.88l33.634,92.922,77.847,8.433a10.23,10.23,0,0,0,11.323-10.579Z" transform="translate(-263.881 -92.633)" fill="#2f2e41"/>
    <path id="Path_46630" data-name="Path 46630" d="M390.34,426.7s-58.16,21.712-42.954,113.649c13.645,82.5,2.8,356.329.431,411.68a10.22,10.22,0,0,0,9.371,10.622l33.95,2.829a10.23,10.23,0,0,0,11.019-9.087l17.534-161.052a2.557,2.557,0,0,1,5.091.062l13.065,154.969a10.23,10.23,0,0,0,10.517,9.365l28.516-.9a10.23,10.23,0,0,0,9.9-10.561l-16.8-510.837Z" transform="translate(-263.176 39.379)" fill="#2f2e41"/>
    <path id="Path_46631" data-name="Path 46631" d="M451.747,362.25c21.008,8.616,47.836-1.449,57.992-21.756s2.119-47.81-17.376-59.452-47.52-5.674-60.581,12.9c-10.625-19.141-38.459-24.021-57.569-13.341s-29.52,33.052-30.754,54.91,5.411,43.39,13.517,63.727c13.112,32.9,55.325,50.607,87.984,36.918C430.008,413.887,432.96,381.3,451.747,362.25Z" transform="translate(-265.574 -196.816)" fill="#2f2e41"/>
    <path id="Path_395" data-name="Path 395" d="M423.949,356.924a2.576,2.576,0,0,1-1.551-.515l-.028-.021-5.84-4.468a2.6,2.6,0,1,1,3.158-4.119l3.783,2.9,8.939-11.662a2.594,2.594,0,0,1,3.637-.48h0l-.056.077.057-.077a2.6,2.6,0,0,1,.48,3.638l-10.514,13.711a2.6,2.6,0,0,1-2.064,1.012Z" transform="translate(-153.122 -98.734)" fill="#6c63ff"/>
    <path id="Path_46632" data-name="Path 46632" d="M1385.724,244.458H582.19a42.7,42.7,0,0,0-42.659,42.659V417.339A42.7,42.7,0,0,0,582.19,460h803.534a42.7,42.7,0,0,0,42.659-42.659V287.116A42.7,42.7,0,0,0,1385.724,244.458Zm38.169,172.881a38.223,38.223,0,0,1-38.169,38.169H582.19a38.223,38.223,0,0,1-38.167-38.169V287.116a38.223,38.223,0,0,1,38.169-38.169h803.533a38.223,38.223,0,0,1,38.17,38.169Z" transform="translate(40.027 -244.458)" fill="#3f3d56"/>
    <path id="Path_46633" data-name="Path 46633" d="M665.366,406.062a74.248,74.248,0,1,1,74.248-74.248A74.249,74.249,0,0,1,665.366,406.062Z" transform="translate(120.371 -224.043)" fill="#00b3ef"/>
    <path id="Path_46634" data-name="Path 46634" d="M1073.5,332.178H687.573a17.962,17.962,0,1,1,0-35.923H1073.5a17.962,17.962,0,0,1,0,35.923Z" transform="translate(242.62 -163.788)" fill="#ccc"/>
    <path id="Path_46635" data-name="Path 46635" d="M815.3,302.329H687.573a17.962,17.962,0,1,1,0-35.923H815.3a17.962,17.962,0,1,1,0,35.923Z" transform="translate(242.62 -210.276)" fill="#ccc"/>
    <path id="Path_395-2" data-name="Path 395" d="M635.594,334.736a8.493,8.493,0,0,1-5.109-1.7l-.091-.069-19.244-14.721a8.552,8.552,0,0,1,10.406-13.574l12.465,9.559,29.455-38.427a8.548,8.548,0,0,1,11.985-1.583l0,0-.183.254.188-.254a8.559,8.559,0,0,1,1.581,11.988L642.4,331.39a8.553,8.553,0,0,1-6.8,3.335Z" transform="translate(146.353 -200.85)" fill="#fff"/>
    <path id="Path_46636" data-name="Path 46636" d="M1250.723,381.458H447.191a42.7,42.7,0,0,0-42.659,42.659V554.339A42.7,42.7,0,0,0,447.191,597h803.532a42.7,42.7,0,0,0,42.659-42.659V424.116a42.7,42.7,0,0,0-42.659-42.658Z" transform="translate(-170.226 -31.088)" fill="#fff"/>
    <path id="Path_46637" data-name="Path 46637" d="M1250.723,381.458H447.191a42.7,42.7,0,0,0-42.659,42.659V554.339A42.7,42.7,0,0,0,447.191,597h803.532a42.7,42.7,0,0,0,42.659-42.659V424.116a42.7,42.7,0,0,0-42.659-42.658Zm38.169,172.881a38.223,38.223,0,0,1-38.169,38.169H447.191a38.223,38.223,0,0,1-38.17-38.169V424.116a38.223,38.223,0,0,1,38.169-38.169h803.533a38.223,38.223,0,0,1,38.17,38.169Z" transform="translate(-170.226 -31.088)" fill="#3f3d56"/>
    <path id="Path_46638" data-name="Path 46638" d="M530.366,543.062a74.248,74.248,0,1,1,74.248-74.248A74.248,74.248,0,0,1,530.366,543.062Z" transform="translate(-89.884 -10.673)" fill="#00b3ef"/>
    <path id="Path_46639" data-name="Path 46639" d="M938.5,469.178H552.572a17.962,17.962,0,0,1,0-35.923H938.5a17.962,17.962,0,1,1,0,35.924Z" transform="translate(32.365 49.583)" fill="#ccc"/>
    <path id="Path_46640" data-name="Path 46640" d="M680.3,439.329H552.572a17.962,17.962,0,0,1,0-35.923H680.3a17.962,17.962,0,1,1,0,35.923Z" transform="translate(32.365 3.094)" fill="#ccc"/>
    <path id="Path_395-3" data-name="Path 395" d="M500.594,471.736a8.493,8.493,0,0,1-5.109-1.7l-.091-.069-19.244-14.721a8.552,8.552,0,0,1,10.406-13.574l12.465,9.559,29.455-38.427a8.548,8.548,0,0,1,11.985-1.583l0,0-.183.254.188-.254a8.559,8.559,0,0,1,1.581,11.988L507.4,468.39a8.554,8.554,0,0,1-6.8,3.335Z" transform="translate(-63.902 12.52)" fill="#fff"/>
    <path id="Path_46641" data-name="Path 46641" d="M465.3,394.1a23.981,23.981,0,0,0-32.726,16.77l-54.014,9.253-2.383,34.2,76.095-14.139A24.111,24.111,0,0,0,465.3,394.1Z" transform="translate(-214.391 -14.352)" fill="#ffb8b8"/>
    <path id="Path_46642" data-name="Path 46642" d="M416.625,356.351h0a33.4,33.4,0,0,1,17.4,42.674l-31.31,79.7,39.307-7.225a10.23,10.23,0,0,1,11.607,6.991l7.836,24.9a10.23,10.23,0,0,1-6.92,12.9l-51.09,14.751a43.525,43.525,0,0,1-55.6-41.575h0a43.522,43.522,0,0,1,.963-9.353l21.467-100.287a33.4,33.4,0,0,1,46.342-23.472Z" transform="translate(-258.503 -74.758)" fill="#ccc"/>
  </g>
</svg>
