<svg xmlns="http://www.w3.org/2000/svg" width="674.288" height="565" viewBox="0 0 674.288 565">
  <g id="Group_17105" data-name="Group 17105" transform="translate(-761 -1356)">
    <g id="Group_17104" data-name="Group 17104">
      <g id="Group_17103" data-name="Group 17103" transform="translate(761 1356)">
        <path id="Path_46703" data-name="Path 46703" d="M846.441,200.5v76h-2v-.81h-669v.81h-2v-76a33.032,33.032,0,0,1,33-33h607A33.032,33.032,0,0,1,846.441,200.5Z" transform="translate(-173.441 -167.5)" fill="#00b3ef"/>
        <path id="Path_46704" data-name="Path 46704" d="M813.441,167.5h-607a33.032,33.032,0,0,0-33,33v434a33.032,33.032,0,0,0,33,33h607a33.032,33.032,0,0,0,33-33v-434A33.032,33.032,0,0,0,813.441,167.5Zm31,467a31.04,31.04,0,0,1-31,31h-607a31.04,31.04,0,0,1-31-31v-434a31.04,31.04,0,0,1,31-31h607a31.04,31.04,0,0,1,31,31Z" transform="translate(-173.441 -167.5)" fill="#3f3d56"/>
        <circle id="Ellipse_3017" data-name="Ellipse 3017" cx="20" cy="20" r="20" transform="translate(116 34.5)" fill="#fff"/>
        <circle id="Ellipse_3018" data-name="Ellipse 3018" cx="20" cy="20" r="20" transform="translate(517 34.5)" fill="#fff"/>
        <path id="Path_46705" data-name="Path 46705" d="M367.226,445H248.25a19.033,19.033,0,0,1-19.011-19.011V369.758a19.033,19.033,0,0,1,19.011-19.011H367.226a19.033,19.033,0,0,1,19.011,19.011v56.233A19.033,19.033,0,0,1,367.226,445Z" transform="translate(-173.441 -167.5)" fill="#00b3ef"/>
        <path id="Path_46706" data-name="Path 46706" d="M569.624,445H450.648a19.033,19.033,0,0,1-19.011-19.011V369.758a19.033,19.033,0,0,1,19.011-19.011H569.624a19.033,19.033,0,0,1,19.011,19.011v56.233A19.033,19.033,0,0,1,569.624,445Z" transform="translate(-173.441 -167.5)" fill="#00b3ef"/>
        <path id="Path_46707" data-name="Path 46707" d="M569.624,590.293H450.648a19.61,19.61,0,0,1-19.588-19.588V514.473a19.61,19.61,0,0,1,19.587-19.588H569.624a19.61,19.61,0,0,1,19.588,19.588v56.233a19.61,19.61,0,0,1-19.588,19.587Z" transform="translate(-173.441 -167.5)" fill="#f2f2f2"/>
        <path id="Path_46708" data-name="Path 46708" d="M366.836,590.293H247.86a19.61,19.61,0,0,1-19.588-19.587V514.473a19.61,19.61,0,0,1,19.588-19.588H366.836a19.61,19.61,0,0,1,19.588,19.588v56.233a19.609,19.609,0,0,1-19.587,19.587Z" transform="translate(-173.441 -167.5)" fill="#f2f2f2"/>
        <path id="Path_46709" data-name="Path 46709" d="M772.023,590.293H653.047a19.61,19.61,0,0,1-19.587-19.588V514.473a19.61,19.61,0,0,1,19.588-19.588H772.023a19.61,19.61,0,0,1,19.588,19.588v56.233A19.609,19.609,0,0,1,772.023,590.293Z" transform="translate(-173.441 -167.5)" fill="#f2f2f2"/>
        <path id="Path_46710" data-name="Path 46710" d="M772.023,445.115H653.047a19.61,19.61,0,0,1-19.587-19.587V369.294a19.61,19.61,0,0,1,19.588-19.587H772.023a19.61,19.61,0,0,1,19.588,19.588v56.233A19.609,19.609,0,0,1,772.023,445.115Z" transform="translate(-173.441 -167.5)" fill="#f2f2f2"/>
        <circle id="Ellipse_3019" data-name="Ellipse 3019" cx="32.262" cy="32.262" r="32.262" transform="translate(102.035 198.112)" fill="#fff"/>
        <path id="Path_46711" data-name="Path 46711" d="M304.54,410.181a3.346,3.346,0,0,1-2.013-.669l-.036-.027-7.582-5.8a3.368,3.368,0,0,1,4.1-5.348l4.911,3.766,11.605-15.135a3.368,3.368,0,0,1,4.723-.623l-.072.1.074-.1a3.372,3.372,0,0,1,.623,4.723l-13.651,17.8a3.37,3.37,0,0,1-2.68,1.315Z" transform="translate(-173.441 -167.5)" fill="#00b3ef"/>
        <circle id="Ellipse_3020" data-name="Ellipse 3020" cx="32.262" cy="32.262" r="32.262" transform="translate(305.009 197.649)" fill="#fff"/>
        <path id="Path_46712" data-name="Path 46712" d="M507.515,409.718a3.346,3.346,0,0,1-2.013-.669l-.036-.027-7.582-5.8a3.368,3.368,0,1,1,4.1-5.348l4.911,3.766L518.5,386.5a3.368,3.368,0,0,1,4.723-.623l-.072.1.074-.1a3.372,3.372,0,0,1,.623,4.723l-13.651,17.8a3.37,3.37,0,0,1-2.68,1.315Z" transform="translate(-173.441 -167.5)" fill="#00b3ef"/>
        <path id="Path_46713" data-name="Path 46713" d="M728.754,549.65a10.743,10.743,0,0,0-2.183-16.327L708.56,437.15l-21.9,8.123,24.592,91.98a10.8,10.8,0,0,0,17.506,12.4Z" transform="translate(-173.441 -167.5)" fill="#a0616a"/>
        <path id="Path_46714" data-name="Path 46714" d="M553.969,402.9a11.414,11.414,0,0,1,.022,1.8l42.59,32.78,12.078-4.96,9.867,17.249L598,460.623A8.669,8.669,0,0,1,587.721,459L545.15,415.106a11.376,11.376,0,1,1,8.819-12.206Z" transform="translate(-173.441 -167.5)" fill="#a0616a"/>
        <path id="Path_46715" data-name="Path 46715" d="M480.028,552.849H467.769l-5.833-37.288h18.1Z" fill="#a0616a"/>
        <path id="Path_46716" data-name="Path 46716" d="M656.6,732.233H617.065v-.5a15.386,15.386,0,0,1,15.386-15.386H656.6Z" transform="translate(-173.441 -167.5)" fill="#2f2e41"/>
        <path id="Path_46717" data-name="Path 46717" d="M526.028,552.849H513.769l-5.833-37.288h18.1Z" fill="#a0616a"/>
        <path id="Path_46718" data-name="Path 46718" d="M702.6,732.233H663.065v-.5a15.386,15.386,0,0,1,15.386-15.386H702.6Z" transform="translate(-173.441 -167.5)" fill="#2f2e41"/>
        <path id="Path_46719" data-name="Path 46719" d="M638.664,712.979a4.49,4.49,0,0,1-4.475-4.072L623.506,565.218l.5-.041,73.521-6.043.02.522L703.4,708.507a4.5,4.5,0,0,1-4.5,4.668H684.483a4.475,4.475,0,0,1-4.447-3.815L660.46,589.114a.5.5,0,0,0-.994.072l-.888,118.724a4.5,4.5,0,0,1-4.263,4.462l-15.409.6C638.825,712.977,638.744,712.979,638.664,712.979Z" transform="translate(-173.441 -167.5)" fill="#2f2e41"/>
        <circle id="Ellipse_3021" data-name="Ellipse 3021" cx="24.561" cy="24.561" r="24.561" transform="translate(453.211 167.003)" fill="#a0616a"/>
        <path id="Path_46720" data-name="Path 46720" d="M655.968,574.382A121.036,121.036,0,0,1,624.2,570.04a4.511,4.511,0,0,1-3.236-4.687c3.306-49.693,4.084-88.257-2.869-114.939-2.963-11.372-1.618-23.349,3.691-32.86,7.99-14.313,22.675-23.024,38.34-22.724h0q1.123.021,2.268.08c23.773,1.224,42.3,22.73,41.294,47.942l-4.782,120.168a4.44,4.44,0,0,1-2.815,4.044,114.243,114.243,0,0,1-40.123,7.317Z" transform="translate(-173.441 -167.5)" fill="#00b3ef"/>
        <path id="Path_46721" data-name="Path 46721" d="M622.136,459.641l-18.4-22.544a5.762,5.762,0,0,1,1.514-8.592l24.922-14.85a16,16,0,1,1,20.16,24.853L630.857,459.88a5.761,5.761,0,0,1-8.721-.239Z" transform="translate(-173.441 -167.5)" fill="#00b3ef"/>
        <path id="Path_46722" data-name="Path 46722" d="M680.011,456.812a5.755,5.755,0,0,1-3.164-3.606L668.565,425.5a16,16,0,0,1,28.944-13.652l16.016,24.188a5.762,5.762,0,0,1-2.361,8.4l-26.354,12.336a5.755,5.755,0,0,1-4.8.04Z" transform="translate(-173.441 -167.5)" fill="#00b3ef"/>
        <path id="Path_46723" data-name="Path 46723" d="M663.35,379.217l-18.206-4.167c-1.878-.43-4.134-1.25-4.395-3.159-.35-2.565,3.341-4.352,3-6.919-.33-2.486-3.693-2.806-6.09-3.54a9.111,9.111,0,0,1-5.672-11.34c-2.594,3.656-8.522,3.969-11.887,1.007s-4.01-8.336-1.99-12.338a14.287,14.287,0,0,1,10.724-7.241,22.616,22.616,0,0,1,13.023,2.428c.267-2.833,3.8-3.982,6.65-4.007a28.431,28.431,0,0,1,26.643,19.446c3.492,11.252,1.156,23.586-8.614,30.17Z" transform="translate(-173.441 -167.5)" fill="#2f2e41"/>
        <path id="Path_46724" data-name="Path 46724" d="M846.729,732.5h-381a1,1,0,0,1,0-2h381a1,1,0,0,1,0,2Z" transform="translate(-173.441 -167.5)" fill="#3f3d56"/>
      </g>
    </g>
  </g>
</svg>
