<svg id="Group_17060" data-name="Group 17060" xmlns="http://www.w3.org/2000/svg" width="2079.043" height="1446.5" viewBox="0 0 2079.043 1446.5">
  <ellipse id="Ellipse_2965" data-name="Ellipse 2965" cx="414.236" cy="31.461" rx="414.236" ry="31.461" transform="translate(0 1383.579)" fill="#e6e6e6"/>
  <path id="Path_46597" data-name="Path 46597" d="M324.272,432.971c72.09-30.662,161.878-11.235,249.566,2.248.816-16.328,10.707-36.2.346-47.592-12.587-13.84-11.429-28.381-3.854-43.006,19.369-37.4-8.381-77.194-36.4-110.283A62.055,62.055,0,0,0,482.135,212.6l-51.9,3.707a62.16,62.16,0,0,0-55.194,44.429h0c-12.394,16.856-19.027,33.665-14.85,50.386-18.564,12.686-21.683,28-13.341,45.263,7.073,10.869,7,21.45-.322,31.738A146.532,146.532,0,0,0,324.737,431.4Z" transform="translate(-7.639 -112.017)" fill="#2f2e41"/>
  <path id="Path_46598" data-name="Path 46598" d="M1917.038,710.288H447.765A49.266,49.266,0,0,1,398.5,661.023h0q798.917-92.849,1567.8,0h0a49.265,49.265,0,0,1-49.265,49.265Z" transform="translate(112.74 540.186)" fill="#2f2e41"/>
  <path id="Path_46599" data-name="Path 46599" d="M1966.3,1280.543l-1567.8-2.9L580.2,971.907l.869-1.449v-673.8a62.273,62.273,0,0,1,62.283-62.277h1069.4a62.273,62.273,0,0,1,62.278,62.283V975.1Z" transform="translate(112.74 -76.436)" fill="#3f3d56"/>
  <path id="Path_46600" data-name="Path 46600" d="M503.9,250.958a20.309,20.309,0,0,0-20.286,20.286V885.614A20.31,20.31,0,0,0,503.9,905.9H1584.844a20.31,20.31,0,0,0,20.286-20.286V271.242a20.309,20.309,0,0,0-20.286-20.286Z" transform="translate(250.771 -49.548)" fill="#fff"/>
  <path id="Path_46601" data-name="Path 46601" d="M533.089,531.718a8.718,8.718,0,0,0-7.9,5.06L469.2,658.493a8.694,8.694,0,0,0,7.9,12.328H1654.5a8.693,8.693,0,0,0,7.774-12.582l-60.857-121.715a8.65,8.65,0,0,0-7.774-4.805Z" transform="translate(226.11 405.775)" fill="#2f2e41"/>
  <circle id="Ellipse_2966" data-name="Ellipse 2966" cx="13.041" cy="13.041" r="13.041" transform="translate(1277.754 165.185)" fill="#fff"/>
  <path id="Path_46602" data-name="Path 46602" d="M665.765,593.619a8.707,8.707,0,0,0-8.394,6.433l-14.044,52.164a8.693,8.693,0,0,0,8.394,10.955H918.808a8.692,8.692,0,0,0,8.213-11.538l-18.056-52.163a8.7,8.7,0,0,0-8.216-5.849Z" transform="translate(509.301 506.163)" fill="#2f2e41"/>
  <path id="Path_46603" data-name="Path 46603" d="M1459.14,337.135v11.591H264.306l.9-1.447V337.135Z" transform="translate(428.637 546.747)" fill="#2f2e41"/>
  <circle id="Ellipse_2967" data-name="Ellipse 2967" cx="202.858" cy="202.858" r="202.858" transform="translate(1651.594 0)" fill="#00b3ef"/>
  <path id="Path_46604" data-name="Path 46604" d="M1054.032,362.305H885.95a11.6,11.6,0,0,1-11.592-11.592V249.284a11.6,11.6,0,0,1,11.592-11.592h168.082a11.6,11.6,0,0,1,11.592,11.592V350.713a11.6,11.6,0,0,1-11.592,11.592ZM885.95,249.284V350.713h168.091l-.009-101.429Z" transform="translate(884.459 -71.059)" fill="#fff"/>
  <path id="Path_46605" data-name="Path 46605" d="M995.265,306.648H890.938V260.28c0-33.584,21.939-57.959,52.163-57.959s52.164,24.375,52.164,57.959ZM902.53,295.057h81.143V260.28c0-27.3-16.683-46.368-40.571-46.368S902.53,232.98,902.53,260.28Z" transform="translate(911.349 -128.423)" fill="#fff"/>
  <circle id="Ellipse_2968" data-name="Ellipse 2968" cx="11.592" cy="11.592" r="11.592" transform="translate(1842.86 214.45)" fill="#fff"/>
  <path id="Path_46606" data-name="Path 46606" d="M1383.142,568.608H547.749a15.488,15.488,0,0,1-15.47-15.47V345.911a15.488,15.488,0,0,1,15.47-15.47h835.393a15.488,15.488,0,0,1,15.471,15.47V553.137A15.488,15.488,0,0,1,1383.142,568.608ZM547.749,336.63a9.292,9.292,0,0,0-9.282,9.282V553.137a9.292,9.292,0,0,0,9.282,9.282h835.393a9.292,9.292,0,0,0,9.282-9.282V345.911a9.292,9.292,0,0,0-9.282-9.282Z" transform="translate(329.696 79.356)" fill="#e6e6e6"/>
  <circle id="Ellipse_2969" data-name="Ellipse 2969" cx="63.017" cy="63.017" r="63.017" transform="translate(944.231 457.91)" fill="#e6e6e6"/>
  <path id="Path_46607" data-name="Path 46607" d="M649.7,356.8a10.5,10.5,0,1,0,0,21.006h495.137a10.5,10.5,0,0,0,0-21.006Z" transform="translate(503.089 122.111)" fill="#e6e6e6"/>
  <path id="Path_46608" data-name="Path 46608" d="M649.7,380.842a10.5,10.5,0,1,0,0,21.006H862.759a10.5,10.5,0,1,0,0-21.006Z" transform="translate(503.089 161.093)" fill="#e6e6e6"/>
  <path id="Path_46609" data-name="Path 46609" d="M563.757,438.155l-154.429,82.1-1.955-68.418c50.4-8.414,98.359-23.065,142.7-46.915l16.151-39.9A27.05,27.05,0,0,1,612.2,358h0a27.05,27.05,0,0,1-2.382,36.885Z" transform="translate(127.131 108.027)" fill="#ffb8b8"/>
  <path id="Path_46610" data-name="Path 46610" d="M323.759,627.312h0a30.343,30.343,0,0,1,3.852-24.548L361.535,550.7a59.284,59.284,0,0,1,76.909-20.29h0c-14.257,24.268-12.27,45.558,4.924,64.059A308.4,308.4,0,0,0,370.126,644.4a30.344,30.344,0,0,1-46.367-17.089Z" transform="translate(-10.204 392.895)" fill="#2f2e41"/>
  <path id="Path_46611" data-name="Path 46611" d="M645.76,678.378h0a58.211,58.211,0,0,1-49.474,28.26L370.92,708.346l-9.774-56.689,99.694-29.322-84.056-64.508,91.875-107.514L635.533,605.846a58.211,58.211,0,0,1,10.228,72.533Z" transform="translate(52.161 273.757)" fill="#2f2e41"/>
  <path id="Path_46612" data-name="Path 46612" d="M413.649,1162.807H360.868c-47.388-324.829-95.625-650.565,46.915-772.143L575.9,418.031l-21.5,142.7-93.83,107.514Z" transform="translate(-25.754 177.022)" fill="#2f2e41"/>
  <path id="Path_46613" data-name="Path 46613" d="M436.44,771.014h0a30.344,30.344,0,0,1-24.548-3.851l-57.307-7.7a59.283,59.283,0,0,1-20.295-76.907h0c24.269,14.256,45.558,12.267,64.058-4.928,13.072,26.394,34.609,24.784,55.179,47.021a30.343,30.343,0,0,1-17.087,46.368Z" transform="translate(-2.151 642.399)" fill="#2f2e41"/>
  <path id="Path_46614" data-name="Path 46614" d="M459.631,391.336l-97.74-23.458c16.233-33.228,17.57-70.2,9.774-109.469l66.463-1.955C440.209,305.285,446.509,350.906,459.631,391.336Z" transform="translate(53.371 -40.631)" fill="#ffb8b8"/>
  <path id="Path_46615" data-name="Path 46615" d="M522.619,641.338C451.469,689.822,401.2,643,362.831,570.751c5.331-44.208-3.3-97.111-19.287-154.595a105.23,105.23,0,0,1,64.248-126.9h0l84.056,35.186c71.373,58.177,85.422,121.2,58.644,187.66Z" transform="translate(17.245 12.572)" fill="#00b3ef"/>
  <path id="Path_46616" data-name="Path 46616" d="M439.821,376.119,361.63,417.17l138.79,82.1,19.312,47.636a25.265,25.265,0,0,1-15.178,33.377h0a25.265,25.265,0,0,1-33.458-22.4l-1.953-33.2-176.4-58.213a41.249,41.249,0,0,1-25.884-25.2h0a41.248,41.248,0,0,1,15.475-47.985l141.849-97.315Z" transform="translate(-104.707 23.456)" fill="#ffb8b8"/>
  <path id="Path_46617" data-name="Path 46617" d="M426.442,396.7c-32.611-14.291-62.265,1.233-99.694,13.684l-5.864-103.6c37.166-19.809,72.6-25.15,105.559-9.774Z" transform="translate(-13.134 10.689)" fill="#00b3ef"/>
  <circle id="Ellipse_2970" data-name="Ellipse 2970" cx="62.403" cy="62.403" r="62.403" transform="translate(389.913 142.336)" fill="#ffb8b8"/>
  <path id="Path_46618" data-name="Path 46618" d="M490.452,283.861c-61.785,6.051-108.864-4.053-138.952-32.825v-23.17H485.209Z" transform="translate(36.518 -86.995)" fill="#2f2e41"/>
</svg>
