<svg xmlns="http://www.w3.org/2000/svg" width="790.523" height="730.492" viewBox="0 0 790.523 730.492">
  <g id="Group_17106" data-name="Group 17106" transform="translate(0 0)">
    <path id="Path_46725" data-name="Path 46725" d="M252.652,143.094a47.968,47.968,0,0,0-47.913,47.913V743a47.968,47.968,0,0,0,47.913,47.913H657.577A47.968,47.968,0,0,0,705.49,743V191.007a47.968,47.968,0,0,0-47.913-47.913Z" transform="translate(-204.739 -84.754)" fill="#3f3d56"/>
    <rect id="Rectangle_6562" data-name="Rectangle 6562" width="450.919" height="579.753" transform="translate(24.916 92.371)" fill="#fff"/>
    <rect id="Rectangle_6563" data-name="Rectangle 6563" width="333.024" height="21.878" transform="translate(83.864 196.289)" fill="#00b3ef"/>
    <rect id="Rectangle_6564" data-name="Rectangle 6564" width="333.024" height="21.878" transform="translate(83.864 254.629)" fill="#00b3ef"/>
    <rect id="Rectangle_6565" data-name="Rectangle 6565" width="333.024" height="21.878" transform="translate(83.864 312.969)" fill="#00b3ef"/>
    <rect id="Rectangle_6566" data-name="Rectangle 6566" width="333.024" height="21.878" transform="translate(83.864 371.309)" fill="#dedada"/>
    <rect id="Rectangle_6567" data-name="Rectangle 6567" width="333.024" height="21.878" transform="translate(83.864 429.649)" fill="#dedada"/>
    <rect id="Rectangle_6568" data-name="Rectangle 6568" width="333.024" height="21.878" transform="translate(83.864 487.989)" fill="#dedada"/>
    <rect id="Rectangle_6569" data-name="Rectangle 6569" width="333.024" height="21.878" transform="translate(83.864 546.329)" fill="#dedada"/>
    <rect id="Rectangle_6570" data-name="Rectangle 6570" width="335.708" height="431.624" transform="translate(91.349 116.043) rotate(-10.37)" fill="#e6e6e6"/>
    <rect id="Rectangle_6571" data-name="Rectangle 6571" width="247.935" height="16.288" transform="translate(148.445 184.246) rotate(-10.37)" fill="#00b3ef"/>
    <rect id="Rectangle_6572" data-name="Rectangle 6572" width="247.935" height="16.288" transform="translate(156.264 226.97) rotate(-10.37)" fill="#00b3ef"/>
    <rect id="Rectangle_6573" data-name="Rectangle 6573" width="247.935" height="16.288" transform="translate(164.082 269.694) rotate(-10.37)" fill="#00b3ef"/>
    <rect id="Rectangle_6574" data-name="Rectangle 6574" width="247.935" height="16.288" transform="translate(171.901 312.418) rotate(-10.37)" fill="#dedada"/>
    <rect id="Rectangle_6575" data-name="Rectangle 6575" width="247.935" height="16.288" transform="translate(179.72 355.142) rotate(-10.37)" fill="#dedada"/>
    <rect id="Rectangle_6576" data-name="Rectangle 6576" width="247.935" height="16.288" transform="translate(187.538 397.867) rotate(-10.37)" fill="#dedada"/>
    <rect id="Rectangle_6577" data-name="Rectangle 6577" width="247.935" height="16.288" transform="translate(195.356 440.591) rotate(-10.37)" fill="#dedada"/>
    <rect id="Rectangle_6578" data-name="Rectangle 6578" width="94.99" height="122.13" transform="translate(561.869 537.161) rotate(-10.37)" fill="#e6e6e6"/>
    <rect id="Rectangle_6579" data-name="Rectangle 6579" width="70.154" height="4.609" transform="translate(578.024 556.46) rotate(-10.37)" fill="#fff"/>
    <rect id="Rectangle_6580" data-name="Rectangle 6580" width="70.154" height="4.609" transform="translate(580.237 568.549) rotate(-10.37)" fill="#fff"/>
    <rect id="Rectangle_6581" data-name="Rectangle 6581" width="70.154" height="4.609" transform="translate(582.449 580.638) rotate(-10.37)" fill="#fff"/>
    <rect id="Rectangle_6582" data-name="Rectangle 6582" width="70.154" height="4.609" transform="translate(584.661 592.727) rotate(-10.37)" fill="#fff"/>
    <rect id="Rectangle_6583" data-name="Rectangle 6583" width="70.154" height="4.609" transform="translate(586.874 604.815) rotate(-10.37)" fill="#fff"/>
    <rect id="Rectangle_6584" data-name="Rectangle 6584" width="70.154" height="4.609" transform="translate(589.086 616.904) rotate(-10.37)" fill="#fff"/>
    <rect id="Rectangle_6585" data-name="Rectangle 6585" width="70.154" height="4.609" transform="translate(591.298 628.994) rotate(-10.37)" fill="#fff"/>
    <path id="Path_46726" data-name="Path 46726" d="M538.6,115.139H498.869V107a22.251,22.251,0,0,0-22.251-22.251H433.61a22.251,22.251,0,0,0-22.251,22.252v8.134H371.624a22.251,22.251,0,0,0-22.251,22.251V199H560.855V137.39A22.251,22.251,0,0,0,538.6,115.139Z" transform="translate(-204.739 -84.754)" fill="#3f3d56"/>
    <path id="Path_46727" data-name="Path 46727" d="M440.85,714.719c6.57-4.5,13.322-9.172,21.124-11.216,7.118-1.865,15.292-1.371,20.922,3.841,4.544,4.206,6.462,10.671,3.1,16.2a10.3,10.3,0,0,1-6.822,4.964,8.219,8.219,0,0,1-7.389-2.886c-1.765-1.951-2.821-4.833-1.883-7.4.986-2.7,3.625-4.357,6.216-5.279a46,46,0,0,1,9.27-1.915l12.892-1.765,52.769-7.224,58.765-8.045a1.836,1.836,0,0,0,1.273-2.243,1.87,1.87,0,0,0-2.243-1.273L491.909,706.485c-4.229.579-8.519.994-12.7,1.844a21.363,21.363,0,0,0-9.122,3.789c-5.6,4.435-5.2,12.279-.047,16.918,5.218,4.7,12.784,3.888,17.363-1.3a15.743,15.743,0,0,0,1.194-19.291c-5-7.537-14.107-10.433-22.81-9.364-10.065,1.236-18.6,6.894-26.773,12.489-1.925,1.317-.1,4.478,1.84,3.148Z" transform="translate(-204.739 -84.754)" fill="#3f3d56"/>
    <path id="Path_46728" data-name="Path 46728" d="M851.145,579.591l1.215,12.154s-7.292,26.739,8.508,26.739,3.646-26.739,3.646-26.739l1.215-9.723Z" transform="translate(-204.739 -84.754)" fill="#a0616a"/>
    <path id="Path_46729" data-name="Path 46729" d="M961.54,539.1l-5.576,10.867s-20.639,18.5-7.369,27.075,17.577-20.477,17.577-20.477l6.3-7.506Z" transform="translate(-204.739 -84.754)" fill="#a0616a"/>
    <path id="Path_46730" data-name="Path 46730" d="M870.591,590.529l17.016,115.464,8.508,82.648s7.292,18.231,31.6,2.431l-3.646-47.4-2.431-42.539s-2.431-41.324-4.862-48.617,1.215-31.6,1.215-31.6l9.723-40.109Z" transform="translate(-204.739 -84.754)" fill="#2f2e41"/>
    <path id="Path_46731" data-name="Path 46731" d="M898.546,786.211l-9.723,10.939s-14.585-4.862-18.231,4.862,27.955,12.154,27.955,12.154,32.816,2.431,32.816,0-.879-21.022-5.3-22.057S898.546,786.211,898.546,786.211Z" transform="translate(-204.739 -84.754)" fill="#2f2e41"/>
    <path id="Path_46732" data-name="Path 46732" d="M916.777,584.452l17.016,121.541,8.508,82.648s7.292,18.231,31.6,2.431l-3.646-47.4-2.431-42.539s-2.431-41.324-4.862-48.617,1.215-31.6,1.215-31.6l-2.431-44.97Z" transform="translate(-204.739 -84.754)" fill="#2f2e41"/>
    <path id="Path_46733" data-name="Path 46733" d="M944.732,786.211l-9.723,10.939s-14.585-4.862-18.231,4.862,27.955,12.154,27.955,12.154,32.816,2.431,32.816,0-.879-21.022-5.3-22.057S944.732,786.211,944.732,786.211Z" transform="translate(-204.739 -84.754)" fill="#2f2e41"/>
    <circle id="Ellipse_3022" data-name="Ellipse 3022" cx="25.524" cy="25.524" r="25.524" transform="translate(650.052 256.615)" fill="#a0616a"/>
    <path id="Path_46734" data-name="Path 46734" d="M694.415,293.685l10.939,18.232L677.4,324.071l-3.646-21.878Z" fill="#a0616a"/>
    <path id="Path_46735" data-name="Path 46735" d="M913.131,394.848s-25.524-2.431-35.247,13.37l-23.99,18.232a13.829,13.829,0,0,0-5.342,12.824l20.824,157.333,30.385-1.215,49.832-9.723,14.585-3.646L956.886,517.6s-8.508-25.524,1.215-42.539l-4.862-59.555L919.208,402.14Z" transform="translate(-204.739 -84.754)" fill="#00b3ef"/>
    <path id="Path_46736" data-name="Path 46736" d="M856.006,431.31l-1.823-3.039s-2.431,0-2.431,4.862S847.5,543.128,847.5,543.128l-1.215,40.109,23.093,2.431,8.508-75.356-3.646-49.832Z" transform="translate(-204.739 -84.754)" fill="#00b3ef"/>
    <path id="Path_46737" data-name="Path 46737" d="M936.224,413.079l17.016,2.431A112.951,112.951,0,0,1,970.256,438.6c7.292,13.37,29.17,38.893,24.308,58.34s-19.447,54.693-19.447,54.693l-23.093-9.723s18.231-42.539,17.016-46.186-15.8-25.524-15.8-25.524Z" transform="translate(-204.739 -84.754)" fill="#00b3ef"/>
    <path id="Path_46738" data-name="Path 46738" d="M862.691,352.916s-20.662-1.215-7.292-14.585c0,0,10.939-4.862,15.8-2.431,0,0,7.292-4.862,7.292-2.431,0,0,25.524-7.292,29.17,18.231s-2.431,37.678-2.431,37.678l-17.016-1.215s3.646-20.662-9.723-18.231c0,0-10.939,3.646-12.154,0S862.691,352.916,862.691,352.916Z" transform="translate(-204.739 -84.754)" fill="#2f2e41"/>
    <path id="Path_46739" data-name="Path 46739" d="M667.676,499.09l10.939-72.924L671.322,381.2l2.431,48.914-7.292,68.981Z" opacity="0.2"/>
  </g>
</svg>
